<svg width="99" height="99" viewBox="0 0 99 99" fill="none" xmlns="http://www.w3.org/2000/svg">
<path d="M78.2003 85.9751L85.1123 66.962C85.4542 66.0221 85.4387 64.9892 85.0688 64.0599C84.6989 63.1306 84.0003 62.3697 83.1059 61.9218L51.478 46.1078C50.912 45.825 50.2879 45.6777 49.6552 45.6777C49.0224 45.6777 48.3984 45.825 47.8324 46.1078L16.2044 61.9218C15.3097 62.3693 14.6107 63.1301 14.2403 64.0594C13.87 64.9888 13.8543 66.0218 14.196 66.962L21.1101 85.9751" stroke="white" stroke-width="6" stroke-linejoin="round"/>
<path d="M59.8499 28.885V12.5735C59.8499 11.492 59.4203 10.4547 58.6555 9.68999C57.8908 8.92524 56.8535 8.49561 55.772 8.49561H43.5384C42.4569 8.49561 41.4197 8.92524 40.6549 9.68999C39.8902 10.4547 39.4605 11.492 39.4605 12.5735V28.885M72.0835 28.885H27.2269C26.1454 28.885 25.1082 29.3146 24.3434 30.0793C23.5787 30.8441 23.149 31.8813 23.149 32.9628V57.4301L47.9466 45.9855C48.4823 45.7383 49.0652 45.6103 49.6552 45.6103C50.2452 45.6103 50.8281 45.7383 51.3638 45.9855L76.1614 57.4301V32.9628C76.1614 31.8813 75.7317 30.8441 74.967 30.0793C74.2022 29.3146 73.165 28.885 72.0835 28.885Z" stroke="white" stroke-width="6" stroke-linecap="round" stroke-linejoin="round"/>
<path d="M49.6552 65.5857V81.8972" stroke="white" stroke-width="6" stroke-linecap="round"/>
<path d="M8.87646 90.053C17.0322 90.053 17.0322 85.9751 23.149 85.9751C29.2658 85.9751 29.2658 90.053 35.3826 90.053C41.4994 90.053 42.5189 85.9751 49.6552 85.9751C56.7915 85.9751 57.8109 90.053 63.9277 90.053C70.0445 90.053 70.0445 85.9751 76.1613 85.9751C82.2781 85.9751 82.2781 90.053 90.4339 90.053" stroke="white" stroke-width="6" stroke-linecap="round" stroke-linejoin="round"/>
</svg>
