<svg width="139" height="139" viewBox="0 0 139 139" fill="none" xmlns="http://www.w3.org/2000/svg">
<path d="M127.437 69.2133L93.8511 57.1421L79.8121 39.5151C78.5914 38.0226 77.0536 36.8206 75.3105 35.9964C73.5675 35.1722 71.6627 34.7464 69.7346 34.75H35.0019C32.8777 34.7493 30.7856 35.2683 28.9079 36.2616C27.0302 37.2549 25.4241 38.6925 24.2294 40.449L12.4492 57.7502C9.99564 61.3509 8.6847 65.6076 8.6875 69.9648V104.25C8.6875 105.402 9.14515 106.507 9.95976 107.322C10.7744 108.136 11.8792 108.594 13.0313 108.594H22.3356C23.2805 112.322 25.4415 115.628 28.4767 117.99C31.5118 120.352 35.2479 121.634 39.0938 121.634C42.9396 121.634 46.6757 120.352 49.7109 117.99C52.746 115.628 54.907 112.322 55.8519 108.594H83.1481C84.093 112.322 86.254 115.628 89.2892 117.99C92.3243 120.352 96.0604 121.634 99.9063 121.634C103.752 121.634 107.488 120.352 110.523 117.99C113.559 115.628 115.72 112.322 116.664 108.594H125.969C127.121 108.594 128.226 108.136 129.04 107.322C129.855 106.507 130.313 105.402 130.313 104.25V73.3008C130.312 72.4063 130.036 71.5337 129.521 70.8021C129.007 70.0705 128.279 69.5157 127.437 69.2133ZM39.0938 112.938C37.3755 112.938 35.6959 112.428 34.2672 111.473C32.8386 110.519 31.7251 109.162 31.0676 107.575C30.41 105.987 30.238 104.24 30.5732 102.555C30.9084 100.87 31.7358 99.322 32.9508 98.107C34.1657 96.8921 35.7137 96.0647 37.3989 95.7295C39.0841 95.3942 40.8309 95.5663 42.4183 96.2238C44.0058 96.8814 45.3626 97.9949 46.3172 99.4235C47.2717 100.852 47.7813 102.532 47.7813 104.25C47.7778 106.553 46.8614 108.761 45.2329 110.389C43.6045 112.018 41.3968 112.934 39.0938 112.938ZM99.9063 112.938C98.188 112.938 96.5084 112.428 95.0798 111.473C93.6511 110.519 92.5376 109.162 91.8801 107.575C91.2225 105.987 91.0505 104.24 91.3857 102.555C91.7209 100.87 92.5483 99.322 93.7633 98.107C94.9782 96.8921 96.5262 96.0647 98.2114 95.7295C99.8966 95.3942 101.643 95.5663 103.231 96.2238C104.818 96.8814 106.175 97.9949 107.13 99.4235C108.084 100.852 108.594 102.532 108.594 104.25C108.591 106.553 107.675 108.762 106.047 110.39C104.418 112.019 102.21 112.935 99.9063 112.938ZM121.625 99.9063H116.664C115.72 96.1783 113.559 92.8718 110.523 90.51C107.488 88.1482 103.752 86.8658 99.9063 86.8658C96.0604 86.8658 92.3243 88.1482 89.2892 90.51C86.254 92.8718 84.093 96.1783 83.1481 99.9063H55.8519C54.907 96.1783 52.746 92.8718 49.7109 90.51C46.6757 88.1482 42.9396 86.8658 39.0938 86.8658C35.2479 86.8658 31.5118 88.1482 28.4767 90.51C25.4415 92.8718 23.2805 96.1783 22.3356 99.9063H17.375V69.9648C17.3745 67.3494 18.1616 64.7944 19.6338 62.6326L31.4097 45.3401C31.8079 44.754 32.3434 44.2743 32.9695 43.9427C33.5957 43.611 34.2934 43.4376 35.0019 43.4375H69.7346C70.3666 43.435 70.9915 43.5715 71.5649 43.8372C72.1384 44.1029 72.6465 44.4914 73.0532 44.9752L87.822 63.5187C88.3242 64.1491 88.992 64.6274 89.7506 64.9L121.625 76.3545V99.9063Z" fill="white"/>
</svg>
