<svg width="150" height="143" viewBox="0 0 150 143" fill="none" xmlns="http://www.w3.org/2000/svg">
<g filter="url(#filter0_d_148_21)">
<path d="M74.4422 34.667C74.4422 39.2859 70.9164 42.9327 66.6842 42.9327C62.4519 42.9327 58.9261 39.2859 58.9261 34.667C58.9261 30.0482 62.4519 26.4014 66.6842 26.4014C70.9164 26.4014 74.4422 30.0482 74.4422 34.667Z" fill="white" stroke="white" stroke-width="2"/>
<path d="M100.646 84.9058L100.646 84.9058L104.32 104.345L104.474 105.16H105.303H113.853V112.425H101.716C100.147 112.425 98.7323 111.246 98.4027 109.513L94.729 90.0753L94.5751 89.261H93.7464H74.8618C73.013 89.2532 71.2189 88.5449 69.8068 87.2501C68.3933 85.954 67.4564 84.1552 67.18 82.175C67.1799 82.1743 67.1798 82.1737 67.1797 82.173L63.3403 53.725C63.3402 53.7246 63.3402 53.7242 63.3401 53.7238C63.2711 53.2008 63.3088 52.6685 63.45 52.1634C63.5913 51.658 63.8322 51.1942 64.1534 50.8022C64.4745 50.4103 64.8678 50.0998 65.3044 49.888C65.7403 49.6766 66.2112 49.5673 66.686 49.5654H71.0631H71.0633C71.8598 49.5653 72.6388 49.8686 73.2558 50.4343C73.8742 51.0013 74.288 51.7949 74.4074 52.6745C74.4074 52.6746 74.4074 52.6747 74.4074 52.6748L75.1211 57.9648L75.238 58.8311H76.1121H96.3371V66.0968H77.3601H76.2159L76.3691 67.2307L78.2477 81.1293L78.3648 81.9953H79.2387H97.3365C98.1017 81.9958 98.8511 82.2762 99.4565 82.8016C100.063 83.3282 100.488 84.0697 100.646 84.9058Z" fill="white" stroke="white" stroke-width="2"/>
<path d="M64.4935 109.793H64.4947C72.4147 109.793 79.2026 105.049 82.6776 98.2105H86.7473L87.7245 103.395C85.2875 107.523 81.9135 110.935 77.9145 113.32C73.8141 115.766 69.1924 117.051 64.4932 117.058C49.4041 117.057 37.0311 104.05 37.0311 87.9448C37.0311 75.3936 44.5616 64.7096 55.0342 60.6222L56.034 68.0341C52.5052 69.7027 49.49 72.38 47.3291 75.7619C45.0273 79.364 43.7968 83.6052 43.7891 87.9431L43.7891 87.9459C43.7952 93.7204 45.9656 99.2672 49.8404 103.367C53.717 107.468 58.9855 109.786 64.4935 109.793Z" fill="white" stroke="white" stroke-width="2"/>
</g>
<defs>
<filter id="filter0_d_148_21" x="23.2731" y="16.1357" width="113.096" height="119.188" filterUnits="userSpaceOnUse" color-interpolation-filters="sRGB">
<feFlood flood-opacity="0" result="BackgroundImageFix"/>
<feColorMatrix in="SourceAlpha" type="matrix" values="0 0 0 0 0 0 0 0 0 0 0 0 0 0 0 0 0 0 127 0" result="hardAlpha"/>
<feOffset dy="4"/>
<feGaussianBlur stdDeviation="2"/>
<feComposite in2="hardAlpha" operator="out"/>
<feColorMatrix type="matrix" values="0 0 0 0 0 0 0 0 0 0 0 0 0 0 0 0 0 0 0.25 0"/>
<feBlend mode="normal" in2="BackgroundImageFix" result="effect1_dropShadow_148_21"/>
<feBlend mode="normal" in="SourceGraphic" in2="effect1_dropShadow_148_21" result="shape"/>
</filter>
</defs>
</svg>
