<svg width="110" height="116" viewBox="0 0 110 116" fill="none" xmlns="http://www.w3.org/2000/svg">
<path d="M82.2842 96.0394L99.6436 77.8461C100.155 77.3113 100.442 76.5857 100.443 75.8288V50.8416C100.443 48.9489 99.7252 47.1337 98.4482 45.7953C97.1712 44.457 95.4392 43.7051 93.6332 43.7051C91.8273 43.7051 90.0953 44.457 88.8183 45.7953C87.5413 47.1337 86.8238 48.9489 86.8238 50.8416V72.2511" stroke="white" stroke-width="5" stroke-linecap="round" stroke-linejoin="round"/>
<path d="M82.2842 77.0088L86.1792 72.9267C86.3838 72.7125 86.5461 72.4581 86.6567 72.1781C86.7674 71.898 86.8241 71.5979 86.8238 71.2948C86.8232 70.867 86.7091 70.4477 86.4943 70.084C86.2794 69.7202 85.9723 69.4261 85.6072 69.2347L83.5962 68.1833C81.8924 67.2905 79.9639 66.9819 78.0836 67.3012C76.2032 67.6206 74.4664 68.5516 73.1188 69.9626L69.0559 74.2208C67.3531 76.0048 66.3962 78.4247 66.3957 80.9481V96.0394M27.8091 96.0394L10.4497 77.8461C9.93878 77.3113 9.65139 76.5857 9.65076 75.8288V50.8416C9.65076 48.9489 10.3682 47.1337 11.6452 45.7953C12.9222 44.457 14.6542 43.7051 16.4601 43.7051C18.2661 43.7051 19.9981 44.457 21.2751 45.7953C22.5521 47.1337 23.2695 48.9489 23.2695 50.8416V72.2511" stroke="white" stroke-width="5" stroke-linecap="round" stroke-linejoin="round"/>
<path d="M27.8091 77.0085L23.9142 72.9264C23.7097 72.7121 23.5476 72.4577 23.437 72.1777C23.3264 71.8977 23.2695 71.5976 23.2695 71.2946C23.2695 70.4239 23.7416 69.6294 24.4861 69.2345L26.4972 68.183C28.2009 67.2902 30.1295 66.9817 32.0098 67.301C33.8901 67.6203 35.627 68.5514 36.9746 69.9624L41.0375 74.2205C42.7403 76.0046 43.6972 78.4244 43.6977 80.9479V96.0392M62.6142 57.9778H47.4792V46.8782H36.8883V31.0161H47.4792V19.9165H62.6142V31.0161H73.205V46.8782H62.6142V57.9778Z" stroke="white" stroke-width="5" stroke-linecap="round" stroke-linejoin="round"/>
</svg>
