<svg width="105" height="110" viewBox="0 0 105 110" fill="none" xmlns="http://www.w3.org/2000/svg">
<path d="M52.5953 82.3686L32.7662 52.9432C29.5206 48.9162 27.4304 44.0032 26.7392 38.7762C26.048 33.5492 26.7842 28.2234 28.862 23.419C30.9398 18.6147 34.2737 14.5296 38.4755 11.6394C42.6773 8.74924 47.574 7.17299 52.5953 7.09424C59.5559 7.16652 66.2054 10.1346 71.0877 15.3485C75.9699 20.5623 78.6868 27.5969 78.6434 34.9115C78.6461 41.2925 76.5788 47.4839 72.7826 52.4642L52.5953 82.3686ZM52.5953 13.9374C47.3592 14.0005 42.3609 16.2448 38.6981 20.1773C35.0352 24.1098 33.0072 29.4091 33.0593 34.9115C33.0811 39.9338 34.8005 44.7845 37.9107 48.5978L52.5953 70.4616L67.6707 48.153C70.5362 44.3942 72.1083 39.7277 72.1314 34.9115C72.1835 29.4091 70.1555 24.1098 66.4926 20.1773C62.8297 16.2448 57.8315 14.0005 52.5953 13.9374Z" fill="white"/>
<path d="M52.5953 37.8884C56.1918 37.8884 59.1073 34.8246 59.1073 31.0453C59.1073 27.2659 56.1918 24.2021 52.5953 24.2021C48.9988 24.2021 46.0833 27.2659 46.0833 31.0453C46.0833 34.8246 48.9988 37.8884 52.5953 37.8884Z" fill="white"/>
<path d="M91.6674 41.3096H85.1553V48.1527H91.6674V96.0546H13.5231V48.1527H20.0351V41.3096H13.5231C11.796 41.3096 10.1397 42.0305 8.91843 43.3139C7.69719 44.5972 7.01111 46.3378 7.01111 48.1527V96.0546C7.01111 97.8695 7.69719 99.6101 8.91843 100.893C10.1397 102.177 11.796 102.898 13.5231 102.898H91.6674C93.3945 102.898 95.0508 102.177 96.2721 100.893C97.4933 99.6101 98.1794 97.8695 98.1794 96.0546V48.1527C98.1794 46.3378 97.4933 44.5972 96.2721 43.3139C95.0508 42.0305 93.3945 41.3096 91.6674 41.3096Z" fill="white"/>
</svg>
