<svg width="123" height="127" viewBox="0 0 123 127" fill="none" xmlns="http://www.w3.org/2000/svg">
<path d="M61.4998 12.1204C55.2484 12.1204 50.0991 17.4766 50.0991 23.9792V53.0095L18.1546 67.833L15.8973 68.8212V87.7162L20.1725 87.2261L50.0991 83.7673V91.0565L40.3592 97.8437L38.6985 98.9505V115.762L43.2132 114.774L61.4998 110.944L79.7901 114.778L84.301 115.766V98.9663L82.6365 97.8516L72.9004 91.0525V83.7673L102.827 87.2261L107.102 87.7202V68.8252L104.845 67.8369L72.9004 53.0095V23.9792C72.9004 17.4766 67.7511 12.1204 61.4998 12.1204ZM61.4998 20.0262C63.6469 20.0262 65.3 21.7458 65.3 23.9792V58.1957L67.5573 59.184L99.5018 74.0075V78.8301L69.5752 75.3673L65.3 74.8732V95.377L66.9645 96.4918L76.7006 103.283V106.129L62.2104 103.164L61.4998 102.919L60.7853 103.156L46.2989 106.121V103.275L56.0389 96.4878L57.6995 95.3731V74.8732L53.4243 75.3673L23.4977 78.8261V74.0035L55.4422 59.18L57.6995 58.1918V23.9792C57.6995 21.7458 59.3526 20.0262 61.4998 20.0262Z" fill="white"/>
</svg>
