<svg width="41" height="41" viewBox="0 0 41 41" fill="none" xmlns="http://www.w3.org/2000/svg">
<g clip-path="url(#clip0_180_89)">
<path d="M19.5 3.72727C17.2974 3.72727 15.1163 4.16111 13.0814 5.00402C11.0464 5.84693 9.19738 7.0824 7.63989 8.63989C6.0824 10.1974 4.84693 12.0464 4.00402 14.0814C3.16111 16.1163 2.72727 18.2974 2.72727 20.5C2.72727 22.7026 3.16111 24.8837 4.00402 26.9186C4.84693 28.9536 6.0824 30.8026 7.63989 32.3601C9.19738 33.9176 11.0464 35.1531 13.0814 35.996C15.1163 36.8389 17.2974 37.2727 19.5 37.2727C23.9484 37.2727 28.2146 35.5056 31.3601 32.3601C34.5056 29.2146 36.2727 24.9484 36.2727 20.5C36.2727 16.0516 34.5056 11.7854 31.3601 8.63989C28.2146 5.49439 23.9484 3.72727 19.5 3.72727ZM-1 20.5C-1 9.17841 8.17841 0 19.5 0C30.8216 0 40 9.17841 40 20.5C40 31.8216 30.8216 41 19.5 41C8.17841 41 -1 31.8216 -1 20.5ZM12.0455 13.9773V15.8409C12.0455 16.088 12.1436 16.3251 12.3184 16.4998C12.4931 16.6746 12.7301 16.7727 12.9773 16.7727C13.2244 16.7727 13.4614 16.6746 13.6362 16.4998C13.8109 16.3251 13.9091 16.088 13.9091 15.8409V13.9773H17.6364V15.8409C17.6364 17.0766 17.1455 18.2616 16.2717 19.1354C15.398 20.0091 14.2129 20.5 12.9773 20.5C11.7416 20.5 10.5565 20.0091 9.6828 19.1354C8.80905 18.2616 8.31818 17.0766 8.31818 15.8409V13.9773H12.0455ZM25.0909 13.9773V15.8409C25.0909 16.088 25.1891 16.3251 25.3638 16.4998C25.5386 16.6746 25.7756 16.7727 26.0227 16.7727C26.2699 16.7727 26.5069 16.6746 26.6816 16.4998C26.8564 16.3251 26.9545 16.088 26.9545 15.8409V13.9773H30.6818V15.8409C30.6818 17.0766 30.191 18.2616 29.3172 19.1354C28.4435 20.0091 27.2584 20.5 26.0227 20.5C24.7871 20.5 23.602 20.0091 22.7283 19.1354C21.8545 18.2616 21.3636 17.0766 21.3636 15.8409V13.9773H25.0909ZM13.7227 23.5452L14.6545 25.1572C15.6274 26.8364 17.4314 27.9545 19.5 27.9545C21.5686 27.9545 23.3764 26.8345 24.3455 25.1591L25.2773 23.5452L28.5032 25.4107L27.5714 27.0246C26.7535 28.4413 25.5769 29.6176 24.16 30.4351C22.7431 31.2527 21.1359 31.6827 19.5 31.6818C17.8643 31.6822 16.2573 31.2517 14.8408 30.4339C13.4242 29.616 12.248 28.4395 11.4305 27.0227L10.4968 25.4107L13.7227 23.5452Z" fill="white"/>
</g>
<defs>
<clipPath id="clip0_180_89">
<rect width="40.0362" height="40.0362" fill="white" transform="translate(0.0410156 0.173889)"/>
</clipPath>
</defs>
</svg>
