<svg width="41" height="41" viewBox="0 0 41 41" fill="none" xmlns="http://www.w3.org/2000/svg">
<g clip-path="url(#clip0_180_100)">
<path d="M15.25 26.375V29.7917M10.125 26.375V31.5M20.375 26.375V31.5M30.625 26.375V31.5M25.5 26.375V29.7917M5 11V17.8333M5 14.4167H35.75M35.75 11V17.8333M33.8281 26.375C34.889 26.375 35.75 27.2497 35.75 28.3276V38.089C35.75 39.167 34.889 40.0417 33.8281 40.0417H6.70833C6.25526 40.0417 5.82073 39.8617 5.50036 39.5413C5.17998 39.2209 5 38.7864 5 38.3333V28.3276C5 27.2497 5.861 26.375 6.92188 26.375H33.8281Z" stroke="white" stroke-width="2" stroke-linecap="round" stroke-linejoin="round"/>
</g>
<defs>
<clipPath id="clip0_180_100">
<rect width="40.0362" height="40.0362" fill="white" transform="translate(0.0410156 0.17392)"/>
</clipPath>
</defs>
</svg>
