<svg width="41" height="41" viewBox="0 0 41 41" fill="none" xmlns="http://www.w3.org/2000/svg">
<g clip-path="url(#clip0_115_147)">
<path d="M13.3865 18.5239C15.5987 18.5239 17.7202 17.6451 19.2844 16.0809C20.8486 14.5167 21.7274 12.3951 21.7274 10.183C21.7274 7.97084 20.8486 5.84931 19.2844 4.28509C17.7202 2.72087 15.5987 1.8421 13.3865 1.8421C11.1744 1.8421 9.05285 2.72087 7.48863 4.28509C5.92441 5.84931 5.04564 7.97084 5.04564 10.183C5.04564 12.3951 5.92441 14.5167 7.48863 16.0809C9.05285 17.6451 11.1744 18.5239 13.3865 18.5239ZM13.3865 18.5239C16.7446 18.5239 19.6789 19.7917 21.7658 21.8986C23.0033 23.1528 23.929 24.6802 24.4682 26.3576M13.3865 18.5239C6.71382 18.5239 1.70929 23.5284 1.70929 30.2011V38.542H18.3911M20.0592 31.5757L27.0489 36.8738L38.4092 21.8602" stroke="white" stroke-width="2"/>
</g>
<defs>
<clipPath id="clip0_115_147">
<rect width="40.0362" height="40.0362" fill="white" transform="translate(0.0411377 0.17392)"/>
</clipPath>
</defs>
</svg>
