<svg width="302" height="27" viewBox="0 0 302 27" fill="none" xmlns="http://www.w3.org/2000/svg">
<path d="M278.054 3.92945C271.503 3.32735 264.84 2.72525 258.177 2.12316C256.031 1.92246 253.772 1.92246 251.626 1.72176C246.883 1.52106 242.139 1.32036 237.396 1.11966C234.798 0.918961 232.088 0.918961 229.49 0.718262C228.7 0.718262 227.909 0.718262 227.232 0.718262C225.538 0.718262 223.843 0.718262 222.036 0.718262C214.244 0.718262 206.451 0.718262 198.658 0.718262C196.851 0.718262 194.931 0.718262 193.124 0.918961C188.494 1.11966 183.976 1.11966 179.346 1.32036C174.151 1.52106 168.956 1.52106 163.76 1.72176C155.403 2.12316 146.933 2.52455 138.575 2.92595C133.719 3.12665 128.862 3.32735 124.006 3.52805C115.649 4.13015 107.291 4.73225 98.9338 5.33434C94.3034 5.73574 89.7858 5.93644 85.1554 6.33784C76.4591 7.34134 67.7629 8.14413 59.0667 8.94693C54.4362 9.34833 49.8057 9.74973 45.1753 10.3518C36.592 11.556 27.8957 12.9609 19.3124 14.3658C17.5054 14.5665 15.5855 14.9679 13.6655 15.1686C10.0515 15.7707 6.32454 16.7742 2.59758 17.577C2.3717 17.577 2.14583 17.7777 1.91995 17.7777C1.4682 17.7777 1.12938 18.1791 0.790567 18.7812C0.225876 19.7847 0 20.9889 0 22.1931C0 23.3973 0.225876 24.6015 0.790567 25.4043C1.24232 26.2071 2.03289 26.8092 2.59758 26.8092C7.1151 26.0064 11.5197 25.0029 16.0372 24.2001C20.2159 23.598 24.3946 22.9959 28.5734 22.3938C33.0909 21.7917 37.6084 20.9889 42.2389 20.3868C44.0459 20.1861 45.8529 19.7847 47.7728 19.584C54.8879 18.9819 61.8901 18.1791 69.0052 17.577C73.4098 17.1756 77.8144 16.7742 82.219 16.3728C84.026 16.1721 85.833 15.9714 87.64 15.7707C94.6422 15.1686 101.644 14.7672 108.647 14.1651C112.938 13.9644 117.117 13.563 121.409 13.3623C122.877 13.3623 124.232 13.1616 125.7 13.1616C133.267 12.7602 140.834 12.5595 148.401 12.1581C152.579 11.9574 156.871 11.7567 161.05 11.556C162.518 11.556 164.099 11.3553 165.567 11.3553C173.36 11.1546 181.153 11.1546 189.058 10.9539C193.915 10.9539 198.771 10.7532 203.628 10.7532C211.872 10.7532 220.229 10.7532 228.474 10.9539C230.055 10.9539 231.749 11.1546 233.33 11.1546C237.961 11.3553 242.478 11.556 247.109 11.9574C250.497 12.1581 253.998 12.3588 257.386 12.5595C259.871 12.7602 262.242 12.9609 264.727 13.1616C271.842 13.7637 279.07 14.5665 286.185 15.3693C287.992 15.57 289.799 15.7707 291.606 15.9714C293.526 16.1721 295.559 16.3728 297.479 16.7742C297.818 16.7742 298.044 16.9749 298.383 17.1756C299.173 17.3763 299.851 17.3763 300.528 16.5735C301.206 15.9714 301.658 14.7672 301.884 13.563C302.335 10.9539 301.432 8.14413 299.851 7.34134C298.496 6.73924 297.14 6.53854 295.898 6.13714C294.994 5.93644 294.091 5.73574 293.188 5.73574C291.38 5.33434 289.573 5.33434 287.879 4.93294C284.717 4.73225 281.329 4.33085 278.054 3.92945Z" fill="black"/>
</svg>
