<svg width="1072" height="1030" viewBox="0 0 1072 1030" fill="none" xmlns="http://www.w3.org/2000/svg">
<path opacity="0.7" d="M922.011 68.9342C875.6 131.564 849.893 209.373 825.529 285.719C801.165 362.065 776.635 440.118 731.934 504.271C687.251 568.425 617.891 617.398 544.799 611.993C401.629 601.385 307.703 426.828 173.967 380.577C130.92 365.682 80.5737 367.592 44.6802 397.769C-5.53763 439.976 -11.4034 525.771 16.9877 588.034C45.3789 650.298 99.7156 692.871 155.137 726.177C197.706 751.761 242.186 773.443 287.973 790.96C345.674 813.008 408.212 830.2 451.442 877.853C506.239 938.267 495.004 985.554 464.921 1029.53H1075V0.0256348H990.911C965.113 19.1884 941.742 42.3137 922.011 68.9342Z" fill="#406994"/>
</svg>
