<svg width="254" height="293" viewBox="0 0 254 293" fill="none" xmlns="http://www.w3.org/2000/svg">
<path opacity="0.5" d="M106.305 144.893C87.1245 125.727 75.4846 98.4291 71.2546 65.5655C69.4646 51.6938 68.7845 37.3764 63.8145 24.5158C58.8445 11.6443 48.2445 0.240393 35.7145 0.294749C20.3345 0.370848 9.04455 17.1669 4.93455 33.7455C-3.70545 68.6094 -2.59545 109.159 21.2545 136.837C39.8245 158.395 67.8546 168.907 84.3146 192.389C100.255 215.121 103.155 247.093 121.685 267.379C131.445 278.065 144.635 284.327 158.015 288.251C176.965 293.796 197.555 294.97 215.925 287.49C234.305 280.011 249.965 262.791 253.185 241.744C261.625 186.573 196.735 179.289 162.615 173.256C139.535 169.168 120.775 159.34 106.305 144.893Z" fill="#406994"/>
</svg>
