<svg width="72" height="94" viewBox="0 0 72 94" fill="none" xmlns="http://www.w3.org/2000/svg">
<g clip-path="url(#clip0_115_118)">
<path d="M22.4057 37.1304C22.4057 37.1304 18.3557 47.4177 16.4057 60.4532C14.4557 73.4888 14.9057 91.5504 14.9057 91.5504M40.3352 55.1512C40.8542 55.5982 41.6747 55.9111 42.4772 56.1288C43.8752 56.5058 45.1652 55.2619 45.1292 53.4136C45.0617 49.9657 44.0237 44.3274 38.7422 39.7814C33.7547 35.4919 28.8032 35.4317 25.6802 36.0497C23.8997 36.3996 23.1902 38.9223 24.2132 40.8445C25.1252 42.5607 26.1872 44.2924 26.9057 44.6248C28.4057 45.3147 30.2102 43.4936 31.5257 44.6248C32.8397 45.754 32.4482 48.3662 33.7637 49.4973C35.0777 50.6285 36.7832 49.1475 38.0987 50.2786C39.4112 51.4098 39.0212 54.02 40.3352 55.1512Z" stroke="black" stroke-width="4" stroke-linecap="round" stroke-linejoin="round"/>
<path d="M19.4056 42.9611C20.6926 42.4052 21.4891 40.5782 21.9346 39.1147C22.3036 37.9058 21.9736 36.5725 21.1096 35.9117C19.1671 34.423 15.0196 32.3861 8.54863 34.8214C2.15113 37.2275 0.463625 42.7045 0.0331254 45.9289C-0.0169984 46.2808 -0.0101749 46.6424 0.0531633 46.9908C0.116502 47.3391 0.234975 47.6666 0.40108 47.9526C0.567186 48.2385 0.777304 48.4766 1.01813 48.6518C1.25896 48.8271 1.52524 48.9356 1.80012 48.9706C2.64012 49.093 3.56413 49.0386 4.11613 48.4322C5.32663 47.1009 5.65363 45.3575 7.00663 44.8871C8.35813 44.4187 9.52512 46.5547 10.8766 46.0844C12.2296 45.616 12.4156 43.0097 13.7671 42.5393C15.1201 42.0709 17.1556 43.9328 19.4056 42.9611ZM29.9056 21.5818C26.1556 23.5253 22.4056 33.2432 22.4056 37.1303L41.9056 25.4689C39.8356 20.8218 33.6556 19.6382 29.9056 21.5818Z" stroke="black" stroke-width="4" stroke-linecap="round" stroke-linejoin="round"/>
<path d="M19.4056 19.6382C25.4056 22.4019 24.4756 32.4832 22.4056 37.1303L4.40564 21.4301C5.90564 17.6946 13.4056 16.8764 19.4056 19.6382Z" stroke="black" stroke-width="4" stroke-linecap="round" stroke-linejoin="round"/>
<path d="M28.4056 77.9453C40.8316 77.9453 47.9056 81.4243 47.9056 85.7196C47.9056 90.0149 37.8316 93.4939 25.4056 93.4939C12.9796 93.4939 2.90564 90.0149 2.90564 85.7196C2.90564 84.6701 3.50564 83.673 4.59314 82.7595" stroke="black" stroke-width="4" stroke-linecap="round"/>
</g>
<defs>
<clipPath id="clip0_115_118">
<rect width="72" height="93.2914" fill="white"/>
</clipPath>
</defs>
</svg>
