<svg width="150" height="21" viewBox="0 0 150 21" fill="none" xmlns="http://www.w3.org/2000/svg">
<path d="M138.106 3.34036C134.853 2.88708 131.543 2.4338 128.233 1.98051C127.168 1.82942 126.046 1.82942 124.98 1.67832C122.624 1.52723 120.268 1.37614 117.912 1.22504C116.622 1.07395 115.275 1.07395 113.985 0.922852C113.593 0.922852 113.2 0.922852 112.863 0.922852C112.022 0.922852 111.181 0.922852 110.283 0.922852C106.412 0.922852 102.542 0.922852 98.6713 0.922852C97.7738 0.922852 96.8202 0.922852 95.9227 1.07395C93.6227 1.22504 91.3789 1.22504 89.079 1.37614C86.4987 1.52723 83.9183 1.52723 81.3379 1.67832C77.1869 1.98051 72.9797 2.2827 68.8287 2.58489C66.4166 2.73599 64.0045 2.88708 61.5924 3.03818C57.4414 3.49146 53.2904 3.94474 49.1393 4.39803C46.8394 4.70022 44.5956 4.85131 42.2957 5.1535C37.9764 5.90897 33.6571 6.51335 29.3377 7.11773C27.0378 7.41992 24.7379 7.72211 22.438 8.17539C18.1748 9.08196 13.8555 10.1396 9.59227 11.1973C8.69474 11.3484 7.74113 11.6506 6.78751 11.8017C4.99247 12.2549 3.14133 13.0104 1.29019 13.6148C1.178 13.6148 1.06581 13.7659 0.953617 13.7659C0.729237 13.7659 0.560951 14.0681 0.392666 14.5214C0.11219 15.2768 0 16.1834 0 17.09C0 17.9965 0.11219 18.9031 0.392666 19.5075C0.617046 20.1119 1.00971 20.5651 1.29019 20.5651C3.53399 19.9608 5.7217 19.2053 7.96551 18.6009C10.041 18.1476 12.1165 17.6943 14.1921 17.2411C16.4359 16.7878 18.6797 16.1834 20.9796 15.7301C21.8771 15.579 22.7746 15.2768 23.7282 15.1257C27.2622 14.6725 30.7401 14.0681 34.2741 13.6148C36.4618 13.3126 38.6495 13.0104 40.8372 12.7082C41.7348 12.5571 42.6323 12.406 43.5298 12.2549C47.0077 11.8017 50.4856 11.4995 53.9635 11.0462C56.0951 10.8951 58.1706 10.5929 60.3022 10.4418C61.0315 10.4418 61.7046 10.2907 62.4339 10.2907C66.1922 9.98852 69.9506 9.83743 73.709 9.53524C75.7845 9.38415 77.9161 9.23305 79.9916 9.08196C80.7209 9.08196 81.5062 8.93086 82.2354 8.93086C86.106 8.77977 89.9766 8.77977 93.9032 8.62867C96.3153 8.62867 98.7274 8.47758 101.139 8.47758C105.234 8.47758 109.385 8.47758 113.48 8.62867C114.266 8.62867 115.107 8.77977 115.893 8.77977C118.192 8.93086 120.436 9.08196 122.736 9.38415C124.419 9.53524 126.158 9.68634 127.841 9.83743C129.075 9.98853 130.253 10.1396 131.487 10.2907C135.021 10.744 138.611 11.3484 142.145 11.9528C143.043 12.1038 143.94 12.2549 144.838 12.406C145.791 12.5571 146.801 12.7082 147.755 13.0104C147.923 13.0104 148.035 13.1615 148.203 13.3126C148.596 13.4637 148.933 13.4637 149.269 12.8593C149.606 12.406 149.83 11.4995 149.942 10.5929C150.167 8.62867 149.718 6.51335 148.933 5.90897C148.259 5.45569 147.586 5.30459 146.969 5.0024C146.52 4.85131 146.072 4.70022 145.623 4.70022C144.725 4.39803 143.828 4.39803 142.986 4.09584C141.416 3.94474 139.733 3.64255 138.106 3.34036Z" fill="white"/>
</svg>
