<svg width="252" height="27" viewBox="0 0 252 27" fill="none" xmlns="http://www.w3.org/2000/svg">
<path d="M232.018 3.34005C226.552 2.73567 220.992 2.13129 215.432 1.52692C213.642 1.32546 211.757 1.32546 209.966 1.124C206.008 0.922537 202.05 0.721077 198.092 0.519618C195.925 0.318159 193.663 0.318159 191.495 0.116699C190.836 0.116699 190.176 0.116699 189.61 0.116699C188.197 0.116699 186.783 0.116699 185.275 0.116699C178.773 0.116699 172.27 0.116699 165.768 0.116699C164.26 0.116699 162.658 0.116699 161.15 0.318159C157.286 0.519618 153.517 0.519618 149.653 0.721077C145.318 0.922537 140.983 0.922537 136.648 1.124C129.674 1.52692 122.606 1.92983 115.632 2.33275C111.58 2.53421 107.528 2.73567 103.475 2.93713C96.5016 3.54151 89.5278 4.14589 82.5541 4.75027C78.6902 5.15318 74.9206 5.35464 71.0568 5.75756C63.8003 6.76486 56.5439 7.5707 49.2874 8.37653C45.4236 8.77945 41.5597 9.18237 37.6959 9.78675C30.5337 10.9955 23.2772 12.4057 16.115 13.8159C14.6072 14.0174 13.0051 14.4203 11.403 14.6218C8.38734 15.2262 5.27743 16.2335 2.16752 17.0393C1.97904 17.0393 1.79056 17.2407 1.60208 17.2407C1.22512 17.2407 0.942398 17.6437 0.659679 18.248C0.18848 19.2553 0 20.4641 0 21.6729C0 22.8816 0.18848 24.0904 0.659679 24.8962C1.03664 25.702 1.69632 26.3064 2.16752 26.3064C5.93711 25.5006 9.61246 24.4933 13.3821 23.6875C16.8689 23.0831 20.3558 22.4787 23.8427 21.8743C27.6123 21.2699 31.3819 20.4641 35.2457 19.8597C36.7535 19.6583 38.2614 19.2553 39.8634 19.0539C45.8005 18.4495 51.6434 17.6437 57.5805 17.0393C61.2559 16.6364 64.9312 16.2335 68.6066 15.8305C70.1144 15.6291 71.6222 15.4276 73.1301 15.2262C78.9729 14.6218 84.8158 14.2189 90.6587 13.6145C94.2398 13.413 97.7267 13.0101 101.308 12.8086C102.533 12.8086 103.664 12.6072 104.889 12.6072C111.203 12.2043 117.517 12.0028 123.831 11.5999C127.318 11.3984 130.899 11.197 134.386 10.9955C135.611 10.9955 136.93 10.794 138.156 10.794C144.658 10.5926 151.161 10.5926 157.757 10.3911C161.81 10.3911 165.862 10.1897 169.914 10.1897C176.794 10.1897 183.768 10.1897 190.647 10.3911C191.966 10.3911 193.38 10.5926 194.699 10.5926C198.563 10.794 202.333 10.9955 206.197 11.3984C209.024 11.5999 211.945 11.8013 214.772 12.0028C216.846 12.2043 218.825 12.4057 220.898 12.6072C226.835 13.2116 232.867 14.0174 238.804 14.8232C240.311 15.0247 241.819 15.2262 243.327 15.4276C244.929 15.6291 246.626 15.8305 248.228 16.2335C248.51 16.2335 248.699 16.4349 248.982 16.6364C249.641 16.8378 250.207 16.8378 250.772 16.032C251.338 15.4276 251.714 14.2189 251.903 13.0101C252.28 10.3911 251.526 7.5707 250.207 6.76486C249.076 6.16048 247.945 5.95902 246.908 5.5561C246.154 5.35464 245.4 5.15318 244.647 5.15318C243.139 4.75027 241.631 4.75027 240.217 4.34735C237.579 4.14589 234.751 3.74297 232.018 3.34005Z" fill="white"/>
</svg>
