<svg width="302" height="302" viewBox="0 0 302 302" fill="none" xmlns="http://www.w3.org/2000/svg">
<path d="M125.093 39.6165C111.458 38.6901 97.9509 42.759 87.0959 51.0633C76.241 59.3675 68.7801 71.3392 66.1067 84.7423C50.436 162.58 101.016 238.66 178.854 254.33C192.247 257.052 206.173 254.805 218.031 248.009C229.889 241.213 238.867 230.333 243.29 217.401C244.376 214.125 244.374 210.585 243.283 207.309C242.192 204.034 240.071 201.2 237.237 199.229L195.183 169.219L195.065 169.195C192.896 167.687 190.387 166.739 187.761 166.436C185.136 166.134 182.477 166.486 180.022 167.462C179.721 167.585 179.439 167.722 179.154 167.869L150.85 183.408C137.408 173.062 125.081 154.341 120.762 137.742L145.868 117.968C146.112 117.773 146.345 117.565 146.565 117.343C148.449 115.465 149.835 113.147 150.597 110.598C151.359 108.05 151.474 105.352 150.932 102.748L150.898 102.609L139.501 52.2588C138.787 48.8783 136.997 45.82 134.4 43.5412C131.803 41.2624 128.538 39.8855 125.093 39.6165Z" fill="white"/>
</svg>
