<svg width="348" height="29" viewBox="0 0 348 29" fill="none" xmlns="http://www.w3.org/2000/svg">
<g clip-path="url(#clip0_120_197)">
<path d="M7.55033 12.332C10.275 12.332 13.1293 12.2131 15.854 12.0941C17.0217 12.0941 18.0596 11.9752 19.2273 11.9752C24.1576 11.7373 29.0879 11.4995 34.0182 11.2616C39.9865 11.0238 45.825 10.667 51.7932 10.4291C60.2266 9.95339 68.66 9.5966 77.0934 9.12088C79.0396 9.00195 80.9857 9.00196 82.9319 8.88302C87.8622 8.64517 92.7925 8.40731 97.7228 8.28838C102.653 8.05052 107.583 7.81266 112.514 7.69373C114.46 7.5748 116.406 7.45587 118.352 7.45587C126.137 7.21801 134.051 6.98015 141.836 6.74229C146.636 6.62336 151.437 6.50443 156.367 6.26657C158.313 6.26657 160.13 6.14764 162.076 6.14764C169.601 6.02871 177.256 5.90978 184.781 5.79085C192.307 5.67192 199.702 5.55299 207.227 5.43406C209.173 5.43406 211.119 5.43406 213.195 5.43406C218.126 5.43406 222.926 5.43406 227.857 5.43406C235.511 5.43406 243.037 5.43406 250.692 5.31513C253.157 5.31513 255.622 5.31513 258.087 5.31513C263.277 5.31513 268.467 5.31513 273.656 5.31513C274.046 5.31513 274.565 5.31513 274.954 5.31513C263.277 5.43406 251.47 5.55299 239.793 5.79085C234.863 5.90978 230.062 5.90978 225.132 6.02871C223.056 6.02871 220.85 6.02871 218.774 6.14764C211.638 6.26657 204.632 6.50443 197.496 6.62336C189.322 6.86122 181.149 6.98015 172.975 7.21801C171.547 7.21801 170.25 7.33694 168.823 7.33694C164.411 7.5748 160.13 7.69373 155.719 7.93159C146.896 8.28838 138.073 8.64517 129.251 9.00195C127.953 9.00195 126.656 9.12088 125.358 9.23981C121.077 9.47767 116.665 9.83446 112.384 10.0723C104.599 10.548 96.9443 11.0238 89.1596 11.4995C87.0837 11.6184 84.8781 11.8563 82.8022 11.9752C77.8719 12.332 72.9416 12.6888 68.0113 13.1645C61.7835 13.6402 55.4261 14.1159 49.1983 14.5917C40.5054 15.3052 31.6828 16.0188 22.9899 16.7324C20.914 16.8513 18.8381 17.0892 16.6324 17.2081C12.8699 17.5649 9.10726 17.9217 5.34467 18.2785C4.95544 18.2785 4.56621 18.5163 4.56621 18.9921C4.56621 19.3488 4.95544 19.7056 5.34467 19.7056C6.77186 19.7056 8.06931 19.8246 9.4965 19.8246C9.23701 20.4192 9.10726 20.776 9.10726 21.1328C9.10726 22.441 10.275 23.6303 11.8319 23.6303C22.6007 23.0357 33.2397 22.3221 44.0085 21.8464C53.3502 21.4896 62.6918 21.0139 72.0334 20.6571C82.2832 20.1813 92.6627 19.7056 102.913 19.3488C106.156 19.2299 109.4 19.111 112.643 18.8731C113.552 18.8731 114.46 18.7542 115.498 18.7542C132.105 18.3974 148.712 17.9217 165.32 17.5649C174.142 17.327 183.095 17.0892 191.917 16.9702C195.161 16.8513 198.275 16.8513 201.518 16.7324C218.515 16.4945 235.511 16.2567 252.508 16.0188C259.774 15.8999 267.039 15.7809 274.305 15.662C280.533 15.5431 286.761 15.5431 292.988 15.3052C298.178 15.1863 303.238 14.9484 308.428 14.8295C311.023 14.7106 313.618 14.7106 316.083 14.5917C321.921 14.2349 327.76 13.8781 333.598 13.5213C333.209 13.997 333.209 14.7106 333.339 15.1863C333.469 15.7809 333.858 16.2567 334.507 16.4945C335.026 16.7324 335.804 16.9702 336.323 16.7324C337.62 16.2567 338.918 15.7809 340.086 15.3052C340.086 15.3052 340.086 15.3052 339.956 15.3052C340.086 15.3052 340.086 15.1863 340.215 15.1863C340.345 15.1863 340.475 15.0674 340.475 15.0674H340.345C340.994 14.8295 341.642 14.5917 342.421 14.2349C343.07 13.997 343.848 13.6402 344.497 13.4024C345.275 13.0456 345.924 12.6888 346.703 12.332C347.481 11.9752 348 11.0238 348 10.1913C348 9.71553 347.87 9.35874 347.611 8.88302C347.351 8.40731 346.703 7.81266 346.054 7.69373C345.405 7.5748 344.756 7.45587 344.108 7.45587C343.978 7.45587 343.848 7.45587 343.718 7.45587C343.329 7.45587 342.81 7.45587 342.421 7.5748C341.383 7.69373 340.475 7.81266 339.437 7.81266C338.658 7.81266 337.88 7.93159 336.972 7.93159C334.766 8.05052 332.69 8.16945 330.484 8.40731C329.965 8.40731 329.317 8.52624 328.798 8.52624C329.057 8.28838 329.187 8.05052 329.187 7.81266C329.317 7.5748 329.317 7.33694 329.317 7.09908C329.317 6.98015 329.317 6.74229 329.447 6.62336C329.447 6.3855 329.447 6.14764 329.317 6.02871C329.317 6.02871 329.447 6.02871 329.447 5.90978C329.836 5.67192 330.225 5.43406 330.484 4.95834C330.744 4.60156 330.874 4.12584 330.874 3.65012C330.874 3.1744 330.744 2.81761 330.484 2.34189C330.355 2.22296 330.225 1.9851 330.095 1.86617C329.706 1.50938 329.317 1.39045 328.928 1.27152C328.149 1.03366 327.241 0.914734 326.333 0.914734C325.554 0.914734 324.905 0.914734 324.127 0.914734C323.089 0.914734 322.051 0.914734 321.013 0.914734C319.586 0.914734 318.029 0.914734 316.602 0.914734C312.709 0.914734 308.817 0.914734 304.925 0.914734C301.292 0.914734 297.529 0.914734 293.897 0.914734C290.523 0.914734 287.28 0.914734 283.906 0.914734C270.542 0.914734 257.309 1.03366 243.945 1.15259C233.955 1.27152 223.964 1.39045 213.974 1.39045C209.563 1.39045 205.022 1.50938 200.61 1.62831C190.62 1.86617 180.63 1.9851 170.639 2.22296C167.785 2.22296 164.93 2.34189 162.076 2.34189C160.389 2.34189 158.832 2.46082 157.146 2.46082C147.285 2.81761 137.425 3.1744 127.564 3.53119C124.58 3.65012 121.596 3.76905 118.482 3.88798C116.795 3.88798 115.109 4.00691 113.422 4.12584C103.561 4.60156 93.8304 5.07727 83.9698 5.55299C78.9098 5.79085 73.8498 6.02871 68.7897 6.3855C60.0969 6.86122 51.404 7.33694 42.8408 7.93159C35.3157 8.40731 27.7905 8.76409 20.2653 9.12088C19.0976 9.23981 17.9299 9.23981 16.6324 9.35874C14.6863 9.47767 12.7401 9.47767 10.7939 9.5966C9.10726 10.0723 7.29084 10.0723 5.60416 10.0723C5.47442 9.5966 4.95544 9.23981 4.56621 9.35874C3.3985 9.35874 2.36055 9.47767 1.19285 9.5966C0.673869 9.71553 0.154891 9.95339 0.0251464 10.4291C-0.104598 11.0238 0.284635 11.6184 0.803614 11.7373C1.32259 11.8563 1.84157 11.9752 2.36055 12.0941C2.87953 12.2131 3.26876 12.2131 3.78774 12.2131C5.08518 12.332 6.25288 12.332 7.55033 12.332ZM311.153 8.52624C312.709 8.52624 314.396 8.52624 315.953 8.52624C316.083 8.88302 316.342 9.12088 316.602 9.35874C315.953 9.35874 315.304 9.47767 314.785 9.47767C313.618 9.47767 312.45 9.5966 311.282 9.5966C306.092 9.71553 301.032 9.95339 295.843 10.0723C293.507 10.1913 291.172 10.3102 288.836 10.3102C285.204 10.3102 281.441 10.4291 277.808 10.4291C269.375 10.548 261.071 10.667 252.638 10.7859C236.29 11.0238 220.072 11.2616 203.724 11.4995C192.047 11.6184 180.37 11.9752 168.693 12.332C151.178 12.8077 133.532 13.1645 116.017 13.6402C112.514 13.7591 109.011 13.8781 105.507 14.1159C95.5171 14.5917 85.5268 14.9484 75.5365 15.4242C65.8056 15.8999 55.945 16.2567 46.2142 16.7324C45.306 16.7324 44.3978 16.8513 43.4896 16.8513C46.0845 16.6135 48.8091 16.4945 51.404 16.2567C60.6158 15.662 69.8277 14.9484 79.0396 14.3538C82.2832 14.1159 85.5268 13.8781 88.6407 13.6402C90.3273 13.5213 92.014 13.4024 93.5709 13.4024C103.302 12.9266 112.903 12.332 122.504 11.8563C124.32 11.7373 126.267 11.6184 128.083 11.4995C130.808 11.3805 133.532 11.2616 136.127 11.2616C145.988 10.9048 155.848 10.548 165.709 10.1913C167.915 10.0723 170.12 10.0723 172.196 9.95339C172.715 9.95339 173.364 9.95339 173.883 9.95339C175.44 9.95339 176.997 9.95339 178.424 9.83446C188.284 9.5966 198.275 9.47767 208.135 9.23981C212.676 9.12088 217.217 9.00195 221.759 9.00195C236.42 8.88302 251.211 8.7641 265.872 8.64517C281.182 8.64517 296.232 8.52624 311.153 8.52624Z" fill="white"/>
<path d="M26.9877 28.9751C27.38 28.9751 27.6979 28.676 27.6979 28.307C27.6979 27.9381 27.38 27.6389 26.9877 27.6389C26.5955 27.6389 26.2775 27.9381 26.2775 28.307C26.2775 28.676 26.5955 28.9751 26.9877 28.9751Z" fill="white"/>
</g>
<defs>
<clipPath id="clip0_120_197">
<rect width="348" height="28.0604" fill="white" transform="translate(0 0.914734)"/>
</clipPath>
</defs>
</svg>
