<svg width="55" height="55" viewBox="0 0 55 55" fill="none" xmlns="http://www.w3.org/2000/svg">
<path d="M9.16659 45.8333C7.90617 45.8333 6.8268 45.3842 5.92846 44.4858C5.03013 43.5875 4.58173 42.5089 4.58326 41.25V13.75C4.58326 12.4896 5.03242 11.4102 5.93076 10.5119C6.82909 9.61354 7.9077 9.16513 9.16659 9.16666H45.8333C47.0937 9.16666 48.173 9.61583 49.0714 10.5142C49.9697 11.4125 50.4181 12.4911 50.4166 13.75V41.25C50.4166 42.5104 49.9674 43.5898 49.0691 44.4881C48.1708 45.3865 47.0921 45.8349 45.8333 45.8333H9.16659ZM27.4999 29.7917L45.8333 18.3333V13.75L27.4999 25.2083L9.16659 13.75V18.3333L27.4999 29.7917Z" fill="white"/>
</svg>
