<svg width="60" height="60" viewBox="0 0 60 60" fill="none" xmlns="http://www.w3.org/2000/svg">
<g clip-path="url(#clip0_142_4)">
<path d="M5 60C3.625 60 2.4475 59.51 1.4675 58.53C0.487504 57.55 -0.00166242 56.3733 4.24448e-06 55V25C4.24448e-06 23.625 0.490004 22.4475 1.47 21.4675C2.45 20.4875 3.62667 19.9983 5 20H45C46.375 20 47.5525 20.49 48.5325 21.47C49.5125 22.45 50.0017 23.6267 50 25V55C50 56.375 49.51 57.5525 48.53 58.5325C47.55 59.5125 46.3733 60.0017 45 60H5ZM25 42.5L45 30V25L25 37.5L5 25V30L25 42.5Z" fill="white"/>
</g>
<defs>
<clipPath id="clip0_142_4">
<rect width="60" height="60" fill="white"/>
</clipPath>
</defs>
</svg>
