<svg width="87" height="87" viewBox="0 0 87 87" fill="none" xmlns="http://www.w3.org/2000/svg">
<g id="palmtree">
<path id="Vector" d="M30.4373 3.50464C25.6706 3.52503 21.2537 4.49239 19.1001 5.16647C19.1001 5.16647 38.6357 8.48165 40.2608 21.9677C25.4158 0.56414 9.22339 26.4495 9.22339 26.4495C12.5994 25.5639 22.2666 22.9352 28.7219 24.0441C33.1385 24.8028 37.444 28.807 37.2581 28.7566C26.7326 31.3462 10.0111 78.1902 12.8505 81.9944C15.3824 84.9035 17.9169 83.9112 20.4491 82.4354C21.7025 72.5077 31.4835 28.9499 43.4523 32.4661C43.454 32.4666 43.4557 32.4656 43.4574 32.4661C44.465 32.8111 45.4183 33.416 45.4699 34.3404C45.5685 36.1013 44.4317 38.9792 44.7002 40.978C45.3224 45.6162 46.2307 47.2294 47.5515 48.8476C50.7059 47.0745 53.7241 40.6817 54.3484 37.367C57.1748 38.6047 61.7184 41.4715 65.425 52.1184C67.3628 42.1413 64.5683 34.2715 55.3946 30.7771C59.3673 29.06 76.6589 37.749 78.7695 42.5918C80.823 33.8593 66.2979 23.1736 54.2051 23.7415C56.5235 23.1366 59.0713 23.8434 61.4958 22.0581C64.7491 19.6625 68.5431 17.5993 72.0785 15.3832C60.1887 10.2116 49.2164 12.7652 48.4437 18.1181C47.8366 6.23783 38.6172 3.47014 30.4371 3.50481L30.4373 3.50464Z" fill="#676F3B"/>
</g>
</svg>
