<svg width="92" height="77" viewBox="0 0 92 77" fill="none" xmlns="http://www.w3.org/2000/svg">
<path fill-rule="evenodd" clip-rule="evenodd" d="M0.324573 75.1643C0.31958 76.1977 1.31423 76.9997 2.29243 76.9595C3.34784 76.9151 4.05962 76.0307 4.083 75.0124L4.08535 75.002C4.08066 75.0228 4.08866 75.0355 4.08632 75.0458L4.12146 74.8904C4.15481 74.7981 4.19158 74.7066 4.23219 74.6139C4.30833 74.463 4.38481 74.3122 4.47093 74.1637C4.76983 73.7086 5.09748 73.2709 5.44351 72.8482C6.75985 71.2734 8.23598 69.8533 9.71289 68.4324C9.91079 68.242 10.1087 68.0516 10.3063 67.8609C10.5691 67.6207 10.8315 67.3804 11.0939 67.1403C12.2426 66.0888 13.3892 65.0392 14.5531 64.0082C15.4373 63.2281 16.3215 62.448 17.208 61.6576C17.725 61.2011 18.2562 60.7671 18.7875 60.3331C19.0532 60.1161 19.3188 59.8991 19.5827 59.6792C21.219 58.3179 22.8691 56.9923 24.5398 55.6714L24.8215 55.4442C25.3408 55.0249 25.8632 54.6032 26.3953 54.2072C26.9103 53.829 27.4246 53.4534 27.939 53.0778C28.455 52.7009 28.9711 52.3241 29.4877 51.9446C30.115 51.4911 30.7444 51.0286 31.3638 50.5719C31.8681 50.2311 32.3721 49.8914 32.8758 49.552C33.9476 48.8297 35.0175 48.1087 36.0838 47.3819C37.0613 46.724 38.0549 46.1084 39.0497 45.492L39.0582 45.4868C39.3546 45.3031 39.6512 45.1194 39.9475 44.9344C40.2489 44.7483 40.5495 44.5608 40.85 44.3734L40.8565 44.3693C41.8406 43.7554 42.8239 43.1419 43.8339 42.5792C45.4905 41.658 47.1367 40.7344 48.7829 39.8109C49.763 39.3254 50.7438 38.8373 51.7245 38.3491C52.707 37.8601 53.6894 37.3712 54.6713 36.8848C55.2572 36.5926 55.8684 36.3407 56.4774 36.0897C56.7743 35.9673 57.0707 35.8452 57.3633 35.7186C57.5255 35.6487 57.6873 35.5783 57.8489 35.5076C58.0237 35.431 58.1983 35.3542 58.3728 35.2774L58.3741 35.2768C59.1423 34.9388 59.9094 34.6013 60.691 34.2933L60.6703 34.2886C63.393 33.2274 66.1474 32.3149 68.9783 31.5939C71.0284 31.0992 73.1022 30.7406 75.186 30.4822C77.1855 30.2592 79.165 30.1733 81.1732 30.1048C82.0949 30.0726 83.0056 30.0889 83.9238 30.1053L84.2859 30.1117L84.3985 30.1206L84.4008 30.1209C85.2496 30.1878 86.0894 30.254 86.9323 30.3508C86.2966 30.9029 85.6249 31.4254 84.9572 31.9448C84.7994 32.0675 84.6419 32.1901 84.4851 32.3128C83.6544 32.9525 82.8341 33.5946 82.0195 34.2597C81.9013 34.3552 81.783 34.4506 81.6647 34.5459L81.3366 34.81C80.0025 35.884 78.6659 36.9598 77.3913 38.1133L75.8309 39.5244C75.7517 39.5964 75.6711 39.6672 75.5904 39.7381C75.378 39.9249 75.1648 40.1122 74.9754 40.3219C74.8499 40.4532 74.7244 40.5843 74.599 40.7152C74.3188 41.0076 74.0389 41.2991 73.7589 41.5907C73.3524 42.014 72.9458 42.4374 72.5387 42.8634C72.3669 43.0451 72.2087 43.2482 72.0504 43.4513C71.9977 43.519 71.945 43.5867 71.8917 43.6536C71.6512 43.9473 71.4113 44.2386 71.1713 44.5298L71.167 44.5351C70.9281 44.825 70.6893 45.1148 70.4498 45.4073C69.8748 46.1026 69.339 46.8354 68.8076 47.5622L68.6983 47.7117C66.9082 50.1381 65.1686 52.6303 63.674 55.2433C62.1375 57.9448 61.0796 60.8416 60.0998 63.7779C59.7817 64.7513 60.2131 65.8289 61.2059 66.2058C62.1412 66.548 63.303 66.0812 63.6235 65.0974C63.9135 64.2483 64.2035 63.3992 64.5039 62.5524C64.846 61.6171 65.2193 60.6888 65.6006 59.7733C66.3276 58.1954 67.1592 56.6848 68.0817 55.2055C68.0772 55.2118 68.0727 55.2182 68.0683 55.2246C68.0654 55.229 68.0624 55.2333 68.0595 55.2377C69.4878 52.9947 71.0551 50.8604 72.629 48.7172L73.0246 48.1782C72.9957 48.2098 72.9694 48.242 72.9431 48.2741C72.9167 48.3063 72.8904 48.3385 72.8615 48.37C73.2587 47.8886 73.6565 47.4046 74.0542 46.9206C74.4526 46.4359 74.851 45.9511 75.2489 45.469C75.4967 45.171 75.7753 44.8933 76.0523 44.6172C76.2099 44.4602 76.367 44.3037 76.5175 44.1442C76.9281 43.7253 77.3282 43.304 77.7284 42.8827C78.1304 42.5185 78.5319 42.1568 78.9333 41.7952L78.9385 41.7905C79.3422 41.4269 79.7458 41.0633 80.15 40.6971C80.6907 40.2138 81.252 39.7562 81.8141 39.298C82.0606 39.097 82.3073 38.8959 82.5525 38.6924C84.0507 37.4424 85.6018 36.2356 87.1421 35.0374L87.143 35.0366L87.2401 34.9611C87.3644 34.8653 87.4894 34.7697 87.6146 34.6738C88.5789 33.9359 89.558 33.1865 90.3536 32.2678C90.939 31.6053 91.4713 30.6476 91.3757 29.7222C91.3729 29.6949 91.3701 29.6676 91.3672 29.6404C91.5096 29.2494 91.5248 28.8208 91.3978 28.4205C91.2452 27.9396 90.9205 27.5939 90.4895 27.3331C90.29 27.2099 90.0758 27.1111 89.8641 27.0134C89.7513 26.9614 89.6392 26.9098 89.5305 26.8549C89.2464 26.7145 88.9704 26.5867 88.6841 26.4566C88.3414 26.2954 87.9983 26.1364 87.6561 25.9778C87.2414 25.7855 86.8281 25.5939 86.4185 25.3999L86.2269 25.3083C83.6083 24.0575 81.0005 22.8117 78.5288 21.2855C78.573 21.3176 78.6183 21.3449 78.6632 21.3739C78.6848 21.3878 78.7063 21.4022 78.7276 21.4176C76.9921 20.3282 75.3342 19.1366 73.7538 17.8428C72.0024 16.3905 70.3088 14.8751 68.7333 13.223C67.7591 12.186 66.8611 11.1009 66.0106 9.95037C65.6141 9.39248 65.2429 8.81854 64.8972 8.22858C64.3597 7.23225 63.8755 6.21001 63.4531 5.16372C63.4536 5.16555 63.4542 5.1674 63.4548 5.16926C63.4511 5.15964 63.4474 5.15022 63.4437 5.14061C63.4171 5.07451 63.3907 5.00829 63.3646 4.94197C63.3746 4.96821 63.3861 4.99475 63.3978 5.02189C63.3988 5.02432 63.3999 5.02678 63.4009 5.02924C62.961 3.88197 62.5436 2.72044 62.1263 1.55895C61.79 0.590004 60.7667 0.00977805 59.7691 0.328636C59.1243 0.531299 58.6372 1.09627 58.492 1.73855C58.4321 2.05165 58.4447 2.3812 58.5472 2.69837C58.9051 3.71576 59.2654 4.72281 59.6488 5.72418C60.5387 8.0488 61.581 10.2772 63.0642 12.2895C64.5555 14.3145 66.2513 16.1571 68.0835 17.8782C70.0236 19.6998 72.0978 21.4102 74.2636 22.9562C76.0709 24.2423 77.9795 25.3759 79.9405 26.4117C79.75 26.4203 79.5592 26.4288 79.3681 26.4365C79.2801 26.44 79.1921 26.4433 79.104 26.4464C76.9517 26.5259 74.8001 26.7471 72.6688 27.071C69.8287 27.4958 67.0463 28.1952 64.306 29.0455C62.3049 29.6601 60.3036 30.3727 58.3847 31.2019C58.0137 31.3626 57.6419 31.523 57.2696 31.6836C56.382 32.0666 55.4919 32.4506 54.6057 32.841C54.4699 32.8998 54.3337 32.9581 54.1974 33.0163L54.1945 33.0176L54.1931 33.0182C53.7011 33.2285 53.2081 33.4393 52.7283 33.6796C52.1228 33.9776 51.5192 34.2787 50.9156 34.5798L50.9107 34.5823C50.3069 34.8835 49.7032 35.1847 49.0974 35.4828C49.0178 35.5219 48.938 35.5608 48.858 35.5996C48.751 35.6516 48.6438 35.7034 48.5364 35.7552C47.9592 36.0341 47.3799 36.314 46.8248 36.6241C45.4871 37.378 44.1456 38.1261 42.8062 38.8731C42.1714 39.2271 41.5371 39.5808 40.9039 39.9348C40.395 40.2237 39.8963 40.5437 39.3983 40.8633C39.2117 40.9831 39.0251 41.1028 38.8381 41.2208C38.2614 41.5804 37.682 41.9394 37.1026 42.2984C36.5233 42.6574 35.9439 43.0164 35.3672 43.376C34.1386 44.1452 32.9411 44.9638 31.7457 45.7809C31.2256 46.1365 30.7058 46.4918 30.1841 46.8427C28.8685 47.7273 27.5905 48.6713 26.3152 49.6133C25.9223 49.9035 25.5296 50.1935 25.1362 50.4815C21.9571 52.808 18.9304 55.3256 15.9049 57.8422L15.4074 58.2559C14.3318 59.1468 13.2934 60.0744 12.2554 61.0019C11.8581 61.3568 11.4609 61.7117 11.0617 62.0644C9.57642 63.3837 8.12794 64.7331 6.69548 66.1079C6.55416 66.2451 6.41269 66.3821 6.27126 66.5191C5.39319 67.3694 4.51627 68.2186 3.68446 69.1184C2.82161 70.0449 1.98849 71.0325 1.31175 72.099C0.888785 72.7656 0.571736 73.4453 0.407757 74.1704L0.397349 74.2592C0.365012 74.5342 0.328907 74.8414 0.324573 75.1643ZM63.4009 5.02924C63.4194 5.07217 63.4383 5.11661 63.4531 5.16372C63.45 5.15601 63.4468 5.14833 63.4437 5.14061C63.4295 5.10359 63.4152 5.06632 63.4009 5.02924ZM4.30173 74.4616C4.2774 74.5129 4.25419 74.5636 4.23219 74.6139C4.24743 74.5827 4.26088 74.5526 4.27423 74.5227L4.28428 74.5001C4.28999 74.4874 4.29577 74.4746 4.30173 74.4616ZM68.0144 55.3103C68.0222 55.2974 68.03 55.2845 68.0379 55.2717L67.9473 55.4147C67.971 55.382 67.9927 55.3461 68.0144 55.3103ZM60.7164 34.2772C60.7113 34.2761 60.7081 34.2781 60.7049 34.2801C60.7017 34.2821 60.6986 34.2841 60.6934 34.2829C60.7037 34.2852 60.7164 34.2772 60.7164 34.2772Z" fill="black"/>
</svg>
