<svg width="76" height="83" viewBox="0 0 76 83" fill="none" xmlns="http://www.w3.org/2000/svg">
<path fill-rule="evenodd" clip-rule="evenodd" d="M75.1814 2.11477C74.9819 1.16251 73.9078 0.620672 73.0152 0.850871C72.0524 1.10029 71.5719 2.05505 71.7515 2.99709L71.7514 3.0071C71.7516 2.98709 71.7417 2.97697 71.7418 2.96698L71.7402 3.11698C71.7277 3.20854 71.712 3.30009 71.6929 3.39347C71.6526 3.54735 71.612 3.70127 71.562 3.85505C71.3768 4.33304 71.1616 4.8007 70.9266 5.25815C70.0259 6.96792 68.9475 8.56687 67.8686 10.1667C67.724 10.381 67.5795 10.5954 67.4353 10.8101C67.2408 11.0831 67.0466 11.3561 66.8526 11.629C66.0028 12.8239 65.1546 14.0167 64.2868 15.1957C63.627 16.0885 62.9671 16.9813 62.3071 17.8841C61.9214 18.4065 61.5181 18.911 61.1147 19.4154C60.913 19.6677 60.7113 19.92 60.5118 20.1745C59.2744 21.7509 58.0173 23.2972 56.7402 24.8433L56.5258 25.1081C56.1305 25.5966 55.7329 26.0881 55.3213 26.5578C54.922 27.0076 54.5227 27.455 54.1234 27.9024C53.7228 28.3513 53.3222 28.8001 52.9215 29.2515C52.4336 29.793 51.9456 30.343 51.4656 30.8859C51.0687 31.2992 50.6717 31.7115 50.2751 32.1234C49.4311 33.0001 48.5887 33.8752 47.7506 34.755C46.9808 35.5537 46.1876 36.3167 45.3936 37.0806L45.3869 37.0871C45.1502 37.3148 44.9135 37.5425 44.6773 37.7713C44.4365 38.0022 44.1969 38.2342 43.9573 38.4661L43.9521 38.4711C43.1674 39.2307 42.3834 39.9896 41.5648 40.7073C40.2218 41.8826 38.8888 43.058 37.5557 44.2334C36.7494 44.8739 35.943 45.517 35.1366 46.1601C34.3287 46.8044 33.5209 47.4486 32.713 48.0903C32.2314 48.475 31.7186 48.8276 31.2075 49.1791C30.9583 49.3504 30.7097 49.5214 30.4652 49.6957C30.3297 49.792 30.1947 49.8889 30.0599 49.9859C29.9141 50.0909 29.7686 50.1961 29.6231 50.3012L29.622 50.302C28.9816 50.765 28.342 51.2273 27.6834 51.6652L27.7034 51.6654C25.4066 53.1802 23.0512 54.5644 20.5876 55.7874C18.798 56.6477 16.9598 57.3876 15.0925 58.037C13.2958 58.6373 11.4905 59.1075 9.65536 59.5673C8.81325 59.779 7.97166 59.9439 7.12315 60.1102L6.78849 60.1758L6.68309 60.1899L6.68091 60.1901C5.88631 60.2962 5.10009 60.4012 4.30501 60.4785C4.78115 59.8447 5.29632 59.231 5.80838 58.6209C5.92938 58.4768 6.05021 58.3328 6.17031 58.1889C6.80863 57.4359 7.43696 56.6827 8.0555 55.9095C8.14542 55.7983 8.23546 55.6871 8.32556 55.576L8.57543 55.268C9.59142 54.0158 10.6093 52.7614 11.5548 51.4477L12.7126 49.8404C12.7712 49.7585 12.8314 49.6773 12.8917 49.5961C13.0503 49.3823 13.2096 49.1677 13.3425 48.9373C13.4321 48.7916 13.5217 48.6461 13.6113 48.5009C13.8115 48.1763 14.0116 47.8526 14.2118 47.5289C14.5024 47.0589 14.793 46.5888 15.0837 46.1162C15.2059 45.9151 15.3114 45.6968 15.417 45.4786C15.4521 45.4058 15.4873 45.3331 15.5231 45.261C15.6865 44.9431 15.8498 44.6276 16.0132 44.3121L16.0161 44.3064C16.1788 43.9923 16.3414 43.6783 16.5041 43.3617C16.896 42.608 17.2445 41.8275 17.5901 41.0536L17.6613 40.8943C18.8298 38.307 19.9389 35.669 20.7987 32.9683C21.6794 30.1778 22.0811 27.3021 22.403 24.4055C22.5035 23.4465 21.8935 22.5397 20.9051 22.3889C19.9764 22.2586 18.9991 22.9179 18.8985 23.8869C18.7992 24.7258 18.7 25.5648 18.5908 26.4036C18.4605 27.3323 18.3003 28.2606 18.1302 29.1787C17.7726 30.7749 17.3055 32.3299 16.7485 33.8738C16.7514 33.8672 16.7542 33.8604 16.757 33.8536C16.7589 33.849 16.7607 33.8444 16.7625 33.8398C15.8908 36.1868 14.8696 38.4613 13.8441 40.7452L13.5864 41.3195C13.6067 41.2847 13.6246 41.2499 13.6425 41.2151C13.6604 41.1803 13.6783 41.1455 13.6987 41.1107C13.4281 41.6323 13.1575 42.1565 12.887 42.6807C12.616 43.2056 12.345 43.7306 12.074 44.253C11.9047 44.5762 11.703 44.8869 11.5026 45.1958C11.3885 45.3715 11.2749 45.5466 11.1678 45.7231C10.8726 46.1899 10.5875 46.6568 10.3023 47.1237C10.0041 47.5384 9.70601 47.9506 9.40789 48.3628L9.40403 48.3682C9.10429 48.7826 8.80455 49.1971 8.50479 49.614C8.10246 50.1658 7.67618 50.6979 7.24924 51.2309C7.06202 51.4646 6.87467 51.6984 6.68916 51.9342C5.55686 53.3809 4.36732 54.7982 3.18611 56.2056L3.18537 56.2065L3.11096 56.2951C3.01544 56.4079 2.91927 56.5206 2.82291 56.6336C2.08101 57.5035 1.32772 58.3867 0.776777 59.3896C0.368768 60.1152 0.067893 61.1019 0.338743 61.935C0.346652 61.9596 0.354644 61.9841 0.362753 62.0086C0.308843 62.3967 0.379524 62.7942 0.575518 63.1376C0.810998 63.5503 1.17823 63.8043 1.62655 63.9593C1.83451 64.0333 2.05126 64.082 2.26542 64.13C2.37954 64.1556 2.49292 64.181 2.60384 64.21C2.89306 64.2832 3.17238 64.3463 3.4617 64.4095C3.80896 64.4902 4.15623 64.5688 4.50259 64.6472C4.92233 64.7423 5.34072 64.837 5.75606 64.9347L5.9506 64.9812C8.60828 65.6154 11.2551 66.247 13.832 67.1637C13.785 67.143 13.7379 67.1267 13.6908 67.1089C13.6682 67.1004 13.6455 67.0914 13.6229 67.0814C15.4358 67.7414 17.1974 68.5108 18.9078 69.3897C20.8071 70.3807 22.6655 71.4412 24.4423 72.6508C25.544 73.413 26.585 74.2345 27.5953 75.1256C28.0705 75.5609 28.5255 76.0159 28.9603 76.4908C29.652 77.3018 30.2997 78.1472 30.8953 79.0269C30.8944 79.0253 30.8935 79.0237 30.8926 79.0221C30.8979 79.0303 30.9031 79.0382 30.9084 79.0463C30.946 79.1019 30.9833 79.1577 31.0205 79.2136C31.0061 79.1914 30.9903 79.1692 30.9742 79.1466C30.9727 79.1445 30.9713 79.1425 30.9698 79.1404C31.6014 80.1097 32.2151 81.0965 32.8288 82.0833C33.3298 82.9088 34.3864 83.2408 35.2418 82.7502C35.7953 82.4363 36.1321 81.8199 36.1389 81.2C36.1323 80.8999 36.0556 80.599 35.8985 80.3273C35.368 79.4614 34.8374 78.6055 34.2867 77.7594C33.0082 75.7952 31.6084 73.9497 29.8455 72.3902C28.0727 70.8206 26.1475 69.4594 24.1208 68.237C21.9749 66.9433 19.7276 65.7785 17.4284 64.7832C15.5106 63.9562 13.5296 63.2897 11.5197 62.7235C11.6934 62.678 11.8674 62.6325 12.0418 62.5877C12.1221 62.5671 12.2025 62.5466 12.283 62.5264C14.2486 62.028 16.1856 61.3993 18.0836 60.6801C20.6143 59.7279 23.0375 58.5345 25.3922 57.2103C27.1129 56.2492 28.8146 55.1978 30.4172 54.0554C30.727 53.8343 31.0376 53.6131 31.3486 53.3917C32.0901 52.8638 32.8336 52.3344 33.5723 51.8C33.6857 51.719 33.7996 51.6385 33.9135 51.5579L33.916 51.5562L33.9171 51.5554C34.3286 51.2645 34.7408 50.9731 35.1349 50.6571C35.6335 50.2632 36.1297 49.8667 36.6258 49.4703L36.6299 49.467C37.1262 49.0704 37.6225 48.6739 38.1213 48.2798C38.1868 48.2281 38.2526 48.1765 38.3185 48.125C38.4068 48.056 38.4953 47.9871 38.5838 47.9182C39.0602 47.5474 39.5381 47.1754 39.9879 46.7803C41.0704 45.8219 42.1576 44.8682 43.243 43.916C43.7575 43.4647 44.2715 43.0138 44.7846 42.5628C45.196 42.1963 45.5918 41.8032 45.9871 41.4106C46.1353 41.2635 46.2834 41.1164 46.4322 40.9708C46.8921 40.5258 47.3545 40.0809 47.817 39.636C48.2794 39.191 48.7418 38.7461 49.2017 38.3011C50.1808 37.3503 51.1214 36.3601 52.0604 35.3718C52.469 34.9417 52.8773 34.5119 53.2883 34.0858C54.3246 33.0116 55.3147 31.8901 56.3026 30.771C56.607 30.4262 56.9111 30.0817 57.2164 29.7388C59.6835 26.969 61.9724 24.0535 64.2605 21.139L64.6368 20.6599C65.4509 19.6273 66.2236 18.5682 66.9959 17.5094C67.2915 17.1041 67.5871 16.699 67.885 16.2954C68.9916 14.7874 70.0585 13.2591 71.1056 11.7105C71.2086 11.5563 71.3117 11.4022 71.4149 11.2482C72.0552 10.2919 72.6948 9.3369 73.2828 8.34426C73.8941 7.32092 74.4659 6.24715 74.8782 5.13162C75.1359 4.4344 75.2935 3.74611 75.3012 3.04615L75.2932 2.96237C75.2687 2.70285 75.2412 2.41289 75.1814 2.11477ZM30.9698 79.1404C30.9443 79.1045 30.9182 79.0674 30.8953 79.0269C30.8996 79.0334 30.904 79.0398 30.9084 79.0463C30.9288 79.0776 30.9494 79.1091 30.9698 79.1404ZM71.6589 3.54733C71.6712 3.49535 71.6826 3.44406 71.6929 3.39347C71.685 3.42512 71.6786 3.45554 71.6722 3.48573L71.6674 3.50848C71.6647 3.52134 71.6619 3.53425 71.6589 3.54733ZM16.7897 33.7641C16.7851 33.7775 16.7805 33.7909 16.7757 33.8042L16.8309 33.6547C16.8155 33.6895 16.8026 33.7268 16.7897 33.7641ZM27.6632 51.685C27.6681 51.6851 27.6707 51.6826 27.6732 51.6801C27.6757 51.6776 27.6783 51.6752 27.6833 51.6752C27.6733 51.6751 27.6632 51.685 27.6632 51.685Z" fill="black"/>
</svg>
