<svg width="90" height="59" viewBox="0 0 90 59" fill="none" xmlns="http://www.w3.org/2000/svg">
<path fill-rule="evenodd" clip-rule="evenodd" d="M0.948615 0.599982C0.0750651 1.02839 -0.18489 2.20299 0.258501 3.01114C0.737847 3.8826 1.78168 4.1126 2.65023 3.70601L2.65995 3.70364C2.64052 3.70837 2.63315 3.72043 2.62343 3.72279L2.7692 3.68737C2.861 3.67685 2.95361 3.66953 3.04881 3.66495C3.20787 3.66602 3.36706 3.6674 3.52841 3.67782C4.03734 3.73937 4.54364 3.83245 5.04495 3.94731C6.92413 4.39813 8.73977 5.04844 10.5564 5.6991C10.7998 5.78629 11.0432 5.87349 11.2868 5.96021C11.5994 6.08131 11.9119 6.20206 12.2242 6.32277C13.592 6.85129 14.9572 7.37887 16.3139 7.92876C17.3419 8.34785 18.37 8.76692 19.4077 9.18365C20.0092 9.42852 20.5976 9.69485 21.186 9.96118C21.4803 10.0944 21.7745 10.2276 22.0704 10.3581C23.9035 11.1681 25.7122 12.0046 27.5257 12.8606L27.8352 13.003C28.4062 13.2655 28.9806 13.5295 29.5373 13.8125C30.0719 14.0884 30.604 14.3649 31.1361 14.6414C31.6699 14.9188 32.2038 15.1963 32.7401 15.4731C33.3852 15.8123 34.0387 16.1494 34.6832 16.4806C35.1817 16.7632 35.6792 17.0461 36.1763 17.3287C37.2342 17.9302 38.2902 18.5306 39.3495 19.1256C40.3136 19.6745 41.2488 20.2547 42.185 20.8357L42.193 20.8406C42.472 21.0137 42.7512 21.1869 43.0312 21.3594C43.3143 21.5356 43.5983 21.7106 43.8821 21.8855L43.8883 21.8893C44.8181 22.4623 45.747 23.0347 46.6445 23.6509C48.1149 24.6622 49.583 25.6639 51.0511 26.6655C51.8708 27.2888 52.6931 27.9116 53.5153 28.5343C54.339 29.1581 55.1627 29.782 55.984 30.4064C56.4756 30.7781 56.944 31.1881 57.4107 31.5966C57.6381 31.7958 57.8652 31.9946 58.0945 32.1884C58.2213 32.2959 58.3485 32.4029 58.4758 32.5096C58.6135 32.625 58.7514 32.74 58.8892 32.855L58.8902 32.8559C59.4969 33.3622 60.1027 33.8679 60.6897 34.3981L60.685 34.3786C62.7198 36.2305 64.6425 38.1713 66.4358 40.2568C67.7112 41.7787 68.8819 43.3774 69.9722 45.0266C70.9974 46.6196 71.8986 48.2529 72.7971 49.9178C73.2102 50.6816 73.5777 51.4565 73.9482 52.2377L74.0944 52.5458L74.134 52.6445L74.1348 52.6465C74.4337 53.3904 74.7295 54.1264 75.0007 54.8777C74.269 54.5728 73.5471 54.225 72.8296 53.8794C72.66 53.7977 72.4907 53.7161 72.3215 53.6353C71.4343 53.2026 70.5494 52.7796 69.6474 52.371C69.5174 52.3113 69.3875 52.2515 69.2575 52.1917L68.8974 52.0255C67.4332 51.3501 65.9663 50.6733 64.4599 50.0813L62.6165 49.3561C62.5227 49.3194 62.4292 49.2811 62.3357 49.2428C62.0892 49.1418 61.842 49.0405 61.5859 48.9685C61.4226 48.9177 61.2595 48.8667 61.0966 48.8158C60.7328 48.7019 60.3697 48.5879 60.0066 48.4738C59.4793 48.3082 58.9521 48.1426 58.4224 47.9776C58.1973 47.9088 57.9597 47.8604 57.7222 47.812C57.643 47.7958 57.5638 47.7797 57.4851 47.7628C57.1367 47.683 56.7907 47.6025 56.4446 47.5221L56.4383 47.5207C56.0938 47.4406 55.7494 47.3605 55.4025 47.281C54.5753 47.0872 53.733 46.9421 52.8977 46.7982L52.7258 46.7686C49.9301 46.2749 47.1 45.8512 44.2707 45.6846C41.3491 45.5199 38.4632 45.8405 35.5767 46.2435C34.6226 46.3828 33.8945 47.1978 33.9923 48.1928C34.0953 49.1249 34.9754 49.9092 35.9392 49.7676C36.7767 49.6567 37.6142 49.5458 38.454 49.4446C39.3861 49.3416 40.3252 49.2677 41.257 49.2059C42.892 49.1585 44.5141 49.2273 46.1478 49.386C46.1407 49.3848 46.1334 49.3837 46.1261 49.3827C46.1212 49.3821 46.1163 49.3814 46.1114 49.3808C48.601 49.6462 51.0571 50.0745 53.5234 50.5045L54.1436 50.6125C54.1049 50.6013 54.0668 50.5926 54.0286 50.5839C53.9905 50.5751 53.9523 50.5664 53.9136 50.5552C54.4859 50.6886 55.0606 50.8215 55.6353 50.9543C56.2109 51.0873 56.7865 51.2204 57.3597 51.354C57.7147 51.4383 58.0655 51.557 58.4143 51.6751C58.6127 51.7422 58.8105 51.8091 59.008 51.8693C59.5332 52.0402 60.056 52.2012 60.5788 52.3623C61.0543 52.5489 61.5274 52.7361 62.0004 52.9232L62.0065 52.9256C62.4822 53.1138 62.9578 53.302 63.4358 53.4895C64.0698 53.7432 64.6907 54.025 65.3125 54.3072C65.5852 54.4309 65.8581 54.5547 66.1323 54.6763C67.8138 55.4165 69.4808 56.2194 71.1362 57.0167L71.1373 57.0172L71.2415 57.0674C71.3744 57.1321 71.5074 57.1975 71.6406 57.263C72.6667 57.7672 73.7085 58.2792 74.8164 58.5656C75.6202 58.7819 76.6507 58.8299 77.3911 58.3618C77.413 58.3481 77.4348 58.3343 77.4566 58.3204C77.846 58.2768 78.2137 58.1102 78.4981 57.8355C78.8399 57.5055 78.9954 57.0869 79.0349 56.6142C79.0554 56.3944 79.049 56.1723 79.0427 55.9529C79.0393 55.836 79.0359 55.7199 79.0367 55.6052C79.0362 55.3069 79.0284 55.0207 79.0182 54.7247C79.0107 54.3683 79.0012 54.0123 78.9917 53.6573C78.9802 53.2271 78.9688 52.7983 78.9609 52.3717L78.9579 52.1717C78.9165 49.4397 78.8753 46.7189 79.1276 43.9954C79.1191 44.0461 79.115 44.0958 79.1093 44.1458C79.1066 44.1698 79.1035 44.194 79.0994 44.2184C79.2916 42.2987 79.6024 40.4016 80.0318 38.5272C80.5234 36.4422 81.0924 34.3794 81.826 32.3591C82.2927 31.1033 82.8318 29.8918 83.446 28.6928C83.7505 28.1248 84.0792 27.5716 84.432 27.033C85.0472 26.1625 85.7065 25.3262 86.4121 24.532C86.4108 24.5332 86.4094 24.5345 86.4081 24.5357C86.4147 24.5286 86.4211 24.5216 86.4276 24.5144C86.4722 24.4643 86.517 24.4143 86.562 24.3645C86.5441 24.384 86.5265 24.4047 86.5085 24.426C86.5069 24.4279 86.5053 24.4298 86.5036 24.4317C87.287 23.5804 88.0918 22.7421 88.8966 21.9039C89.573 21.2146 89.6339 20.1087 88.9473 19.4009C88.5065 18.942 87.8261 18.7677 87.2236 18.9141C86.9345 18.9947 86.6618 19.1433 86.4373 19.3625C85.7291 20.0903 85.0307 20.8158 84.3467 21.5583C82.7588 23.282 81.3159 25.094 80.2398 27.1874C79.1564 29.2928 78.3124 31.4943 77.6281 33.76C76.9041 36.1588 76.33 38.6241 75.933 41.0979C75.605 43.1605 75.4481 45.2447 75.3955 47.3321C75.3085 47.175 75.2215 47.0177 75.135 46.8597C75.0952 46.787 75.0556 46.7142 75.0161 46.6412C74.0479 44.8594 72.9606 43.1375 71.7952 41.4757C70.2478 39.2584 68.4932 37.2046 66.6288 35.2496C65.2727 33.8194 63.8338 32.4299 62.3312 31.1588C62.0404 30.9132 61.7494 30.6668 61.4581 30.4201C60.7635 29.8319 60.067 29.242 59.3668 28.6581C59.2603 28.5682 59.1542 28.4777 59.048 28.3871L59.0457 28.3852L59.0446 28.3843C58.6612 28.0574 58.2771 27.7299 57.8736 27.4259C57.3688 27.04 56.8621 26.657 56.3555 26.2741L56.3513 26.271C55.8445 25.8879 55.3377 25.5048 54.8327 25.1187C54.7665 25.068 54.7002 25.017 54.634 24.9658C54.5454 24.8973 54.4568 24.8285 54.3681 24.7597C53.8913 24.3896 53.4128 24.0183 52.9188 23.68C51.723 22.8675 50.5304 22.0494 49.3397 21.2325C48.7754 20.8454 48.2116 20.4586 47.6479 20.0727C47.1912 19.7645 46.7126 19.4779 46.2345 19.1917C46.0554 19.0845 45.8763 18.9773 45.6985 18.869C45.1538 18.5332 44.6085 18.1949 44.0632 17.8566C43.5179 17.5183 42.9726 17.18 42.4278 16.8441C41.2647 16.13 40.0731 15.4629 38.8835 14.7969C38.3659 14.5071 37.8486 14.2175 37.3343 13.9244C36.0375 13.1853 34.7063 12.5027 33.378 11.8216C32.9688 11.6117 32.5598 11.402 32.1522 11.1908C28.8592 9.48371 25.4689 7.98525 22.0798 6.48732L21.5226 6.24097C20.3211 5.70685 19.104 5.21955 17.8873 4.7324C17.4216 4.54597 16.9561 4.35956 16.4914 4.17055C14.757 3.47032 13.0126 2.8137 11.2535 2.18121C11.0786 2.1195 10.9038 2.05755 10.7291 1.99561C9.64438 1.6111 8.56107 1.2271 7.454 0.902303C6.31144 0.562502 5.12974 0.273385 3.94697 0.149191C3.20772 0.0715697 2.50182 0.088729 1.82162 0.254033L1.74239 0.282427C1.49696 0.370274 1.22275 0.468446 0.948615 0.599982ZM86.5036 24.4317C86.4752 24.4653 86.4456 24.4998 86.4121 24.532C86.4173 24.5261 86.4224 24.5203 86.4276 24.5144C86.4529 24.4869 86.4783 24.4592 86.5036 24.4317ZM3.20629 3.65988C3.15289 3.66081 3.10039 3.66248 3.04881 3.66495C3.08143 3.66478 3.11249 3.6635 3.14332 3.66222L3.16655 3.66126C3.17969 3.66074 3.19289 3.66026 3.20629 3.65988ZM46.0313 49.3731C46.0455 49.3743 46.0596 49.3755 46.0737 49.3768L45.9152 49.3602C45.9527 49.3665 45.992 49.3698 46.0313 49.3731ZM60.7139 34.4128C60.7127 34.4079 60.7097 34.4061 60.7067 34.4042C60.7036 34.4024 60.7006 34.4006 60.6994 34.3957C60.7018 34.4054 60.7139 34.4128 60.7139 34.4128Z" fill="black"/>
</svg>
