<svg width="87" height="70" viewBox="0 0 87 70" fill="none" xmlns="http://www.w3.org/2000/svg">
<path fill-rule="evenodd" clip-rule="evenodd" d="M85.1231 69.0675C86.0483 68.7665 86.4711 67.6402 86.146 66.7777C85.7943 65.8474 84.7933 65.4726 83.8761 65.7527L83.8661 65.7537C83.886 65.7518 83.895 65.7409 83.905 65.7399L83.7557 65.7544C83.6633 65.7519 83.5706 65.7461 83.4757 65.7372C83.3184 65.7137 83.161 65.69 83.0027 65.6569C82.5075 65.5242 82.0194 65.3608 81.5393 65.1764C79.7423 64.4653 78.0364 63.5656 76.3296 62.6655C76.1009 62.5449 75.8722 62.4243 75.6433 62.3041C75.3509 62.1401 75.0585 61.9766 74.7663 61.8131C73.4867 61.0971 72.2094 60.3824 70.9437 59.6468C69.985 59.0871 69.0263 58.5273 68.0576 57.9685C67.4966 57.6414 66.9516 57.2948 66.4066 56.9482C66.1341 56.7749 65.8615 56.6015 65.587 56.4306C63.8863 55.3704 62.2135 54.2874 60.5388 53.1844L60.2524 52.9998C59.724 52.6595 59.1926 52.3172 58.6813 51.9586C58.191 51.6101 57.7031 51.2614 57.2153 50.9126C56.7258 50.5628 56.2364 50.2129 55.7445 49.8632C55.1536 49.4366 54.5541 49.0107 53.9627 48.592C53.509 48.242 53.0563 47.8918 52.604 47.5419C51.6414 46.7974 50.6805 46.0542 49.7156 45.3159C48.8385 44.6366 47.9944 43.9304 47.1493 43.2233L47.1422 43.2173C46.8903 43.0066 46.6384 42.7958 46.3854 42.5856C46.13 42.3712 45.8735 42.158 45.6171 41.9448L45.6116 41.9402C44.7718 41.242 43.9327 40.5444 43.131 39.8079C41.8178 38.5994 40.5055 37.4009 39.1932 36.2024C38.4695 35.4698 37.7432 34.7374 37.0169 34.005C36.2893 33.2714 35.5617 32.5377 34.8366 31.8037C34.4023 31.3664 33.9964 30.8946 33.5919 30.4244C33.3948 30.1951 33.1979 29.9663 32.9983 29.7421C32.8879 29.6178 32.7771 29.494 32.666 29.3704C32.546 29.2368 32.4257 29.1035 32.3054 28.9702L32.3045 28.9692C31.7753 28.3825 31.2467 27.7965 30.7403 27.1888L30.7423 27.2088C28.9886 25.0887 27.3586 22.8963 25.8771 20.5789C24.8288 18.8925 23.8951 17.1447 23.0481 15.3584C22.2576 13.6369 21.5955 11.8928 20.9405 10.1179C20.6392 9.30354 20.3845 8.48464 20.1278 7.65899L20.0264 7.33337L20.0011 7.23009L20.0006 7.22796C19.8095 6.44942 19.6204 5.67911 19.4577 4.897C20.1392 5.30203 20.8049 5.74803 21.4666 6.19133C21.6229 6.29608 21.7791 6.40069 21.9351 6.50456C22.7526 7.05798 23.5691 7.60144 24.4045 8.13301C24.5247 8.21041 24.645 8.28794 24.7652 8.36553L25.0983 8.58074C26.4527 9.4558 27.8096 10.3325 29.2175 11.1308L30.9403 12.1086C31.0281 12.1581 31.1152 12.2091 31.2025 12.2603C31.4322 12.395 31.6627 12.5301 31.9061 12.6375C32.0606 12.7108 32.2149 12.7842 32.369 12.8577C32.7132 13.0217 33.0566 13.1857 33.4 13.3498C33.8986 13.588 34.3973 13.8263 34.8984 14.0643C35.1116 14.1641 35.34 14.2455 35.5683 14.3269C35.6444 14.354 35.7205 14.3812 35.7961 14.409C36.1298 14.5371 36.461 14.6655 36.7923 14.7939L36.7983 14.7962C37.1281 14.924 37.4578 15.0518 37.7901 15.1794C38.5816 15.4879 39.3951 15.7502 40.2018 16.0103L40.3679 16.0639C43.0661 16.9466 45.8082 17.7648 48.5859 18.3284C51.4551 18.9032 54.3574 18.9924 57.2718 19.0001C58.236 18.9967 59.0717 18.2924 59.1151 17.2935C59.1445 16.3563 58.3837 15.4557 57.4095 15.4601C56.5648 15.4519 55.72 15.4437 54.8742 15.4256C53.937 15.3962 52.9968 15.337 52.0657 15.2669C50.4403 15.0835 48.844 14.7867 47.249 14.3994C47.2559 14.4016 47.2629 14.4037 47.27 14.4058C47.2747 14.4071 47.2795 14.4084 47.2843 14.4097C44.857 13.7962 42.4857 13.0261 40.1045 12.2529L39.5058 12.0585C39.5425 12.0751 39.5791 12.0891 39.6156 12.1031C39.6521 12.1171 39.6887 12.1312 39.7255 12.1477C39.1777 11.935 38.6274 11.7225 38.0771 11.51C37.526 11.2972 36.9749 11.0843 36.4263 10.8713C36.0867 10.7378 35.7561 10.5708 35.4274 10.4048C35.2404 10.3104 35.0541 10.2163 34.867 10.1288C34.3712 9.88573 33.8762 9.65258 33.3813 9.41943C32.9369 9.16772 32.4949 8.91577 32.053 8.66383L32.0472 8.66057C31.6029 8.40727 31.1585 8.15397 30.7117 7.90091C30.1198 7.56041 29.5448 7.19399 28.9689 6.827C28.7164 6.66606 28.4637 6.50503 28.2093 6.34602C26.6489 5.3763 25.1116 4.3465 23.5851 3.32393L23.5841 3.32329L23.488 3.25886C23.3656 3.17606 23.2431 3.09261 23.1204 3.00899C22.1756 2.3652 21.2164 1.71153 20.1599 1.27193C19.3945 0.944534 18.3811 0.751802 17.5821 1.11089C17.5585 1.12141 17.535 1.132 17.5115 1.1427C17.1198 1.13095 16.7323 1.24408 16.412 1.47596C16.0272 1.75455 15.8142 2.14703 15.7085 2.60944C15.6573 2.82418 15.6323 3.04491 15.6076 3.263C15.5945 3.37921 15.5815 3.49467 15.5646 3.60808C15.523 3.9035 15.4904 4.18799 15.4588 4.48244C15.416 4.83637 15.3753 5.1901 15.3346 5.5429C15.2854 5.97044 15.2363 6.3966 15.1839 6.82006L15.1587 7.01848C14.8148 9.72904 14.4722 12.4285 13.8387 15.0893C13.8543 15.0403 13.8653 14.9917 13.878 14.9429C13.884 14.9195 13.8905 14.8961 13.898 14.8725C13.4373 16.746 12.8623 18.5803 12.1729 20.3755C11.3925 22.3705 10.5386 24.3325 9.52758 26.2293C8.88864 27.4067 8.18416 28.5303 7.40711 29.6307C7.02564 30.1501 6.62231 30.6516 6.19714 31.135C5.46544 31.9101 4.6948 32.6452 3.8844 33.3321C3.88586 33.331 3.88735 33.33 3.88884 33.3289C3.88135 33.3351 3.87399 33.3411 3.8665 33.3473C3.81528 33.3906 3.76389 33.4338 3.71233 33.4767C3.73281 33.46 3.75315 33.4419 3.77395 33.4235C3.77581 33.4218 3.77771 33.4201 3.7796 33.4185C2.88409 34.1509 1.96919 34.8674 1.05432 35.5839C0.287573 36.171 0.0714455 37.2572 0.651436 38.0548C1.02322 38.5712 1.67227 38.8396 2.28935 38.7795C2.58696 38.7405 2.87781 38.6318 3.13103 38.4464C3.93466 37.8257 4.72836 37.2059 5.51015 36.5671C7.32505 35.0843 9.00887 33.4937 10.3692 31.5729C11.7385 29.6412 12.8843 27.5805 13.881 25.4338C14.9358 23.161 15.8515 20.8011 16.5931 18.408C17.2084 16.4122 17.6575 14.3709 18.0037 12.3117C18.0677 12.4795 18.1317 12.6475 18.195 12.8161C18.2242 12.8937 18.2532 12.9714 18.282 13.0492C18.9894 14.9497 19.8233 16.8076 20.7429 18.617C21.9624 21.0302 23.4101 23.3107 24.9805 25.5089C26.1215 27.116 27.3502 28.6943 28.6588 30.1645C28.912 30.4486 29.1654 30.7335 29.419 31.0188C30.0238 31.6991 30.6303 32.3812 31.2412 33.0579C31.334 33.162 31.4263 33.2665 31.5187 33.3711L31.5207 33.3734L31.5216 33.3744C31.8551 33.7521 32.1893 34.1305 32.5459 34.4883C32.9913 34.9415 33.439 35.392 33.8866 35.8425L33.8903 35.8462C34.338 36.2968 34.7858 36.7475 35.2314 37.2009C35.2898 37.2605 35.3482 37.3203 35.4065 37.3803C35.4846 37.4606 35.5627 37.5412 35.6407 37.6218C36.0607 38.0554 36.4821 38.4904 36.9234 38.8949C37.9929 39.8679 39.0582 40.8458 40.122 41.8223C40.6261 42.2851 41.1298 42.7475 41.6335 43.2089C42.0422 43.5784 42.4757 43.9296 42.9086 44.2803C43.0709 44.4117 43.233 44.543 43.3938 44.6753C43.8858 45.0846 44.378 45.4963 44.8702 45.9081C45.3624 46.3198 45.8546 46.7316 46.3465 47.1408C47.3974 48.0117 48.4832 48.8401 49.5671 49.6671C50.0387 50.0269 50.51 50.3865 50.9779 50.7492C52.1576 51.6636 53.3793 52.5269 54.5984 53.3885C54.974 53.6539 55.3493 53.9191 55.7231 54.1856C58.7427 56.3397 61.888 58.3009 65.0322 60.2614L65.5491 60.5838C66.6635 61.2819 67.7997 61.9359 68.9357 62.5896C69.3704 62.8398 69.8051 63.0899 70.2384 63.3425C71.8569 64.2802 73.4914 65.176 75.1438 66.0501C75.3083 66.1358 75.4726 66.2218 75.6368 66.3077C76.6565 66.8412 77.6749 67.374 78.7252 67.8516C79.8085 68.349 80.9376 68.8017 82.0911 69.0913C82.812 69.2724 83.5133 69.3548 84.21 69.287L84.2925 69.2701C84.5478 69.2177 84.8331 69.1591 85.1231 69.0675ZM3.7796 33.4185C3.81251 33.3893 3.84666 33.3593 3.8844 33.3321C3.87842 33.3372 3.87247 33.3422 3.8665 33.3473C3.83762 33.371 3.80854 33.3948 3.7796 33.4185ZM83.3191 65.72C83.3721 65.7266 83.4243 65.7324 83.4757 65.7372C83.4434 65.7328 83.4124 65.7297 83.3817 65.7266L83.3586 65.7243C83.3455 65.7229 83.3324 65.7216 83.3191 65.72ZM47.3625 14.4286C47.3486 14.4255 47.3348 14.4223 47.3211 14.419L47.4757 14.4577C47.4394 14.4462 47.401 14.4374 47.3625 14.4286ZM30.7184 27.1709C30.7189 27.1758 30.7216 27.1781 30.7244 27.1803C30.7271 27.1826 30.7298 27.1848 30.7303 27.1898C30.7294 27.1799 30.7184 27.1709 30.7184 27.1709Z" fill="black"/>
</svg>
