<svg width="72" height="74" viewBox="0 0 72 74" fill="none" xmlns="http://www.w3.org/2000/svg">
<path d="M66.8568 71.3188C66.9505 70.2029 66.6036 69.0657 66.273 68.0346C65.847 66.6624 65.2837 65.3308 64.6577 64.0572C63.5001 61.7035 62.0937 59.504 60.6954 57.3108C58.5632 53.9339 56.4251 50.5659 54.0744 47.3533C53.1752 46.1216 52.268 44.8835 51.3747 43.643C50.9152 42.9393 50.4558 42.2356 49.9905 41.5408C49.6298 40.9672 49.3203 40.3532 48.9713 39.7619C48.6572 39.2111 48.3803 38.6224 48.0975 38.0425C47.7566 37.2705 47.4157 36.4985 47.1224 35.7101C46.9664 35.2552 46.836 34.7801 46.7277 34.3088C46.6729 33.9992 46.6206 33.7047 46.5879 33.3989C46.5808 33.2599 46.5795 33.1121 46.5725 32.9731C46.5794 32.8315 46.5887 32.7051 46.5957 32.5636C46.613 32.4435 46.6443 32.3209 46.6699 32.2072C46.6977 32.1086 46.7314 32.0011 46.7732 31.9C46.8092 31.8077 46.8534 31.7218 46.8975 31.6358C46.9614 31.5385 47.0253 31.4412 47.0833 31.3527C47.1612 31.2528 47.253 31.1504 47.3389 31.0568C47.6701 30.7395 48.0036 30.4372 48.3615 30.154C49.0483 29.6317 49.7596 29.1284 50.4545 28.6124C51.1378 28.1141 51.8002 27.573 52.4568 27.0406C53.068 26.5398 53.6455 25.9595 54.2032 25.3905C54.8586 24.7103 55.4977 24.0173 56.1181 23.2967C58.3292 20.7516 60.1263 17.8454 62.099 15.102C62.9902 13.9503 63.8999 12.8263 64.7887 11.6594C65.6484 10.5368 66.4594 9.37624 67.3028 8.24097C67.5736 7.90341 67.8547 7.58734 68.1498 7.26872C68.8296 6.60744 69.5199 5.96761 70.1752 5.28738C70.4413 5.01301 70.7004 4.69316 70.8688 4.34302C71.043 3.98402 71.1463 3.58332 71.1275 3.18146C71.1157 2.82509 71.0144 2.49279 70.8655 2.17693C70.5723 1.57553 70.142 1.01466 69.5188 0.784973C69.0712 0.624703 68.6386 0.516292 68.1748 0.530429C67.9469 0.540655 67.7134 0.559712 67.4902 0.600266C67.0774 0.293384 66.5507 0.178698 65.9939 0.334423C65.2721 0.535728 64.6097 0.889871 63.9402 1.19857C63.344 1.47058 62.7419 1.75145 62.1375 2.01714C61.2937 2.40428 60.4535 2.76737 59.6132 3.13049C57.7129 3.96679 55.8102 4.78797 53.9076 5.60911C52.1735 6.36066 50.4441 7.14253 48.7123 7.90924C46.9469 8.68988 45.1686 9.43389 43.4089 10.2057C39.864 11.7695 36.2679 13.1867 32.6998 14.6923C32.7672 14.6645 32.8428 14.6429 32.916 14.6062C29.4118 16.0146 25.9029 17.3926 22.3905 18.7946C20.3972 19.5855 18.398 20.3852 16.3989 21.1849C14.6439 21.8935 12.8679 22.5592 11.128 23.3196C9.01384 24.2571 6.87293 25.1605 4.84955 26.3154C3.86169 26.8845 2.90755 27.5333 2.13255 28.4146C1.332 29.316 0.970947 30.465 0.967994 31.7047C0.969381 32.2266 1.12192 32.799 1.31045 33.2792C1.51992 33.8022 1.76894 34.3025 2.09115 34.7661C2.86118 35.8576 3.80319 36.762 4.81374 37.5994C7.15464 39.5355 9.86143 40.9142 12.4486 42.4003C14.0288 43.3056 15.6218 44.1541 17.202 45.0594C20.9298 47.2033 24.6343 49.3827 28.3389 51.562C31.5633 53.4623 34.7842 55.3866 37.9319 57.4412C38.7215 57.9602 39.5168 58.4703 40.2982 58.983C40.2901 58.9767 40.2738 58.964 40.2656 58.9577C40.6819 59.2406 41.104 59.5147 41.5122 59.7912L41.504 59.7849C41.5284 59.8038 41.5529 59.8228 41.5773 59.8417C41.6017 59.8607 41.6343 59.8859 41.6645 59.896C41.7843 59.9756 41.9041 60.0551 42.0157 60.1284C41.9994 60.1157 41.9994 60.1157 41.9831 60.1031C42.5273 60.4718 43.0692 60.8254 43.6134 61.1941C43.6053 61.1878 43.5971 61.1815 43.5971 61.1815C46.7158 63.2803 49.8461 65.3614 53.0379 67.3299C54.7414 68.3843 56.4565 69.4209 58.1774 70.4487C59.8192 71.4286 61.4912 72.3251 63.2074 73.1355C63.8806 73.4574 64.5723 73.6201 65.286 73.4125C65.7672 73.2783 66.1508 72.9748 66.418 72.5677C66.6782 72.2087 66.821 71.7852 66.8568 71.3188ZM58.3393 60.3576C59.5037 62.1957 60.6426 64.0542 61.6199 66.0277C62.0248 66.8894 62.3879 67.7586 62.7172 68.6418C59.9767 67.1836 57.3279 65.5294 54.6674 63.8929C51.5244 61.9623 48.4523 59.8862 45.3627 57.8367C45.4336 57.8784 45.4987 57.9289 45.5697 57.9705C45.058 57.6271 44.5382 57.2773 44.0266 56.9338C43.9231 56.8669 43.8196 56.8 43.7219 56.7242C43.7219 56.7242 43.7301 56.7305 43.7382 56.7368C43.1556 56.3516 42.587 55.964 42.0126 55.5852C42.0777 55.6357 42.1487 55.6773 42.2196 55.719C38.8939 53.4864 35.4812 51.3865 32.0556 49.3435C28.7475 47.3649 25.4475 45.3925 22.1069 43.4822C19.9616 42.2587 17.8221 41.0264 15.6652 39.8206C13.2897 38.4986 10.8887 37.197 8.60725 35.6942C7.83747 35.1639 7.08277 34.5918 6.36292 33.9666C6.01172 33.6407 5.69415 33.301 5.37431 32.946C5.208 32.7502 5.05336 32.5367 4.89865 32.3232C4.84863 32.231 4.79277 32.1476 4.74274 32.0553C4.69853 31.9543 4.65431 31.8532 4.61009 31.7521C4.59263 31.6851 4.56938 31.627 4.56587 31.5575C4.5612 31.5272 4.55879 31.5121 4.55413 31.4817C4.5576 31.4577 4.56114 31.4337 4.5588 31.4185C4.56228 31.3945 4.56578 31.3704 4.57506 31.3375C4.58087 31.3287 4.57853 31.3136 4.58433 31.3048C4.59595 31.2871 4.59946 31.263 4.61689 31.2365C4.64593 31.1922 4.68072 31.1392 4.70162 31.0886C4.75623 31.0242 4.81088 30.9596 4.86549 30.8951C5.02817 30.7408 5.19321 30.6018 5.35822 30.4627C5.71266 30.2034 6.07753 29.9657 6.44478 29.7431C9.51762 28.0001 12.8151 26.7384 16.0427 25.3959C15.9695 25.4326 15.902 25.4605 15.8346 25.4883C23.2883 22.5362 30.7525 19.6055 38.1655 16.5283C45.3425 13.5485 52.445 10.3641 59.5836 7.27434C60.7331 6.7771 61.8744 6.27355 63.0157 5.76999C63.5608 5.53845 64.0896 5.29429 64.6242 5.04126C64.758 5.11828 64.9033 5.17762 65.0603 5.21924C65.0289 5.24833 65.0115 5.27484 64.9801 5.30393C64.1226 6.34822 63.3652 7.48346 62.5729 8.57827C61.2054 10.3621 59.7949 12.0992 58.4704 13.9298C57.8628 14.7806 57.282 15.6655 56.6988 16.5353C56.1423 17.3456 55.5614 18.1371 54.9665 18.931C54.4135 19.6238 53.8547 20.3255 53.2609 20.9868C52.6951 21.643 52.1002 22.2498 51.5018 22.8807C51.0939 23.2588 50.6837 23.6218 50.284 24.0061C49.9075 24.3551 49.4879 24.6574 49.0905 24.9634C47.5704 26.0814 45.9249 27.1285 44.6398 28.5622C42.3252 31.1339 42.9361 35.1068 44.2231 38.0684C44.7956 39.3673 45.3646 40.6902 46.0754 41.9093C46.4581 42.5802 46.8293 43.2687 47.2515 43.9168C47.7087 44.6053 48.16 45.3027 48.6114 46C48.5718 45.9293 48.5183 45.8611 48.4787 45.7903C49.0417 46.6544 49.6756 47.4667 50.2758 48.2929C50.876 49.1191 51.5076 49.9162 52.0822 50.7626C53.2826 52.5085 54.461 54.2507 55.6161 56.0282C55.5707 55.9663 55.5312 55.8955 55.4777 55.8272C56.4234 57.3622 57.3901 58.8466 58.3393 60.3576Z" fill="black"/>
<path d="M43.8556 48.6411C43.6845 48.1344 43.4007 47.6872 43.1529 47.2412C43.0866 47.0428 42.9865 46.8585 42.8783 46.6677C42.6514 46.1712 42.4222 45.6594 42.1616 45.1768C41.5694 44.0764 40.9145 43.0341 40.356 41.9197C40.0093 41.1566 39.6764 40.391 39.3041 39.6481C38.9109 38.8622 38.5003 38.1029 38.107 37.317C38.1407 37.3966 38.1721 37.4611 38.2058 37.5407C37.837 36.7738 37.4647 36.0309 37.0215 35.3398C36.9168 35.0315 36.812 34.7232 36.7015 34.4238C36.6398 34.2557 36.592 34.0852 36.5361 33.9083C36.5674 33.7857 36.607 33.6693 36.6464 33.5531C36.6697 33.5177 36.6906 33.4671 36.7057 33.4254C37.132 32.701 37.585 32.0108 37.9788 31.2612C38.0055 31.2018 38.0322 31.1424 38.0728 31.0805C39.0463 29.4851 40.1175 27.9655 41.1886 26.446C41.3884 26.1602 41.4895 25.8379 41.5184 25.5131C41.53 25.4954 41.5474 25.4689 41.5672 25.4576C41.7693 25.187 41.9715 24.9164 42.1655 24.6395C42.2259 24.5662 42.2864 24.4929 42.341 24.4284C42.3724 24.3993 42.3979 24.3791 42.4293 24.35C42.5571 24.2488 42.7012 24.1603 42.8453 24.0718C43.352 23.7303 43.6529 23.1223 43.6793 22.5018C44.0033 21.7649 43.8634 20.8551 43.3063 20.2626C42.612 19.5237 41.6554 19.6897 40.8127 19.9441C40.6674 19.9783 40.5384 20.0251 40.4036 20.0808C40.3896 20.0833 40.3838 20.0922 40.3757 20.0859C40.2548 20.139 40.1397 20.1834 40.0212 20.2517C39.8805 20.3162 39.7423 20.3958 39.6016 20.4603C39.4831 20.5286 39.3785 20.5945 39.2681 20.6691C39.1181 20.673 38.9763 20.6831 38.8229 20.711C38.4881 20.7718 38.1603 20.8781 37.8384 20.9756C37.0317 21.2313 36.2507 21.5602 35.4848 21.941C34.4062 22.4799 33.3672 23.0896 32.3306 23.7144C31.2741 24.3506 30.2712 25.0551 29.2252 25.7128C28.3989 26.1669 27.5551 26.554 26.7218 26.9626C25.8211 27.3991 24.939 27.8633 24.0488 28.3212C23.0853 28.8159 22.1253 29.2865 21.1594 29.7659C20.6946 30.0063 20.2297 30.2466 19.7729 30.4933C19.2906 30.7602 18.6967 31.0473 18.3284 31.4961C17.8335 32.1004 17.7222 32.9624 18.0294 33.6548C18.0667 33.8974 18.14 34.1413 18.2808 34.3573C18.432 34.5948 18.5879 34.8627 18.8193 35.0155C19.0123 35.1519 19.2112 35.2794 19.4042 35.4158L19.3961 35.4095C20.2205 35.9689 21.0333 36.546 21.7939 37.2027C22.4044 37.7698 22.9801 38.3901 23.651 38.8839C24.379 39.4219 25.0988 39.9535 25.8326 40.4826C26.6094 41.0585 27.3803 41.6433 28.1629 42.2103C28.9129 42.7521 29.6804 43.2673 30.4269 43.8331C31.206 44.4241 31.9817 45.0392 32.7492 45.6479C33.5411 46.2756 34.3853 46.8237 35.2178 47.3894C36.9074 48.5398 38.6179 49.7332 40.4399 50.6257C41.3922 51.084 42.6316 51.4978 43.438 50.494C43.4728 50.4409 43.5215 50.3853 43.5622 50.3233C43.8863 49.867 44.0523 49.2211 43.8556 48.6411Z" fill="black"/>
</svg>
