<svg width="118" height="303" viewBox="0 0 118 303" fill="none" xmlns="http://www.w3.org/2000/svg">
<path d="M72.1759 77.7697V71.7097H74.5359V77.7697H72.1759Z" fill="#A7A7A7"/>
<path d="M72.1759 191.395V185.335H74.5359V191.395H72.1759Z" fill="#1E1E1E"/>
<path d="M72.1759 39.8952V33.8352H74.5359V39.8952H72.1759Z" fill="#1E1E1E"/>
<path d="M72.1759 153.52V147.46H74.5359V153.52H72.1759Z" fill="#A7A7A7"/>
<path d="M72.1759 115.645V109.585H74.5359V115.645H72.1759Z" fill="#1E1E1E"/>
<path d="M72.1759 229.27V223.21H74.5359V229.27H72.1759Z" fill="#A7A7A7"/>
<path d="M72.1759 267.145V261.085H74.5359V267.145H72.1759Z" fill="#1E1E1E"/>
<path d="M27.9259 77.7697V71.7097H30.2859V77.7697H27.9259Z" fill="#1E1E1E"/>
<path d="M27.9259 191.395V185.335H30.2859V191.395H27.9259Z" fill="#A7A7A7"/>
<path d="M27.9259 39.8952V33.8352H30.2859V39.8952H27.9259Z" fill="#A7A7A7"/>
<path d="M27.9259 153.52V147.46H30.2859V153.52H27.9259Z" fill="#1E1E1E"/>
<path d="M27.9259 115.645V109.585H30.2859V115.645H27.9259Z" fill="#A7A7A7"/>
<path d="M27.9259 229.27V223.21H30.2859V229.27H27.9259Z" fill="#1E1E1E"/>
<path d="M27.9259 267.145V261.085H30.2859V267.145H27.9259Z" fill="#A7A7A7"/>
<path d="M101.676 77.7697V71.7097H104.036V77.7697H101.676Z" fill="#A7A7A7"/>
<path d="M101.676 191.395V185.335H104.036V191.395H101.676Z" fill="#1E1E1E"/>
<path d="M101.676 39.8952V33.8352H104.036V39.8952H101.676Z" fill="#1E1E1E"/>
<path d="M101.676 153.52V147.46H104.036V153.52H101.676Z" fill="#A7A7A7"/>
<path d="M101.676 115.645V109.585H104.036V115.645H101.676Z" fill="#1E1E1E"/>
<path d="M101.676 229.27V223.21H104.036V229.27H101.676Z" fill="#A7A7A7"/>
<path d="M101.676 267.145V261.085H104.036V267.145H101.676Z" fill="#1E1E1E"/>
<path d="M57.4259 77.7697V71.7097H59.7859V77.7697H57.4259Z" fill="#1E1E1E"/>
<path d="M57.4259 191.395V185.335H59.7859V191.395H57.4259Z" fill="#A7A7A7"/>
<path d="M57.4259 39.8952V33.8352H59.7859V39.8952H57.4259Z" fill="#A7A7A7"/>
<path d="M57.4259 153.52V147.46H59.7859V153.52H57.4259Z" fill="#1E1E1E"/>
<path d="M57.4259 115.645V109.585H59.7859V115.645H57.4259Z" fill="#A7A7A7"/>
<path d="M57.4259 229.27V223.21H59.7859V229.27H57.4259Z" fill="#1E1E1E"/>
<path d="M57.4259 267.145V261.085H59.7859V267.145H57.4259Z" fill="#A7A7A7"/>
<path d="M13.1759 77.7697V71.7097H15.5359V77.7697H13.1759Z" fill="#A7A7A7"/>
<path d="M13.1759 191.395V185.335H15.5359V191.395H13.1759Z" fill="#1E1E1E"/>
<path d="M13.1759 39.8952V33.8352H15.5359V39.8952H13.1759Z" fill="#1E1E1E"/>
<path d="M13.1759 153.52V147.46H15.5359V153.52H13.1759Z" fill="#A7A7A7"/>
<path d="M13.1759 115.645V109.585H15.5359V115.645H13.1759Z" fill="#1E1E1E"/>
<path d="M13.1759 229.27V223.21H15.5359V229.27H13.1759Z" fill="#A7A7A7"/>
<path d="M13.1759 267.145V261.085H15.5359V267.145H13.1759Z" fill="#1E1E1E"/>
<path d="M86.9259 77.7697V71.7097H89.2859V77.7697H86.9259Z" fill="#1E1E1E"/>
<path d="M86.9259 191.395V185.335H89.2859V191.395H86.9259Z" fill="#A7A7A7"/>
<path d="M86.9259 39.8952V33.8352H89.2859V39.8952H86.9259Z" fill="#A7A7A7"/>
<path d="M86.9259 153.52V147.46H89.2859V153.52H86.9259Z" fill="#1E1E1E"/>
<path d="M86.9259 115.645V109.585H89.2859V115.645H86.9259Z" fill="#A7A7A7"/>
<path d="M86.9259 229.27V223.21H89.2859V229.27H86.9259Z" fill="#1E1E1E"/>
<path d="M86.9259 267.145V261.085H89.2859V267.145H86.9259Z" fill="#A7A7A7"/>
<path d="M42.6759 77.7697V71.7097H45.0359V77.7697H42.6759Z" fill="#A7A7A7"/>
<path d="M42.6759 191.395V185.335H45.0359V191.395H42.6759Z" fill="#1E1E1E"/>
<path d="M42.6759 39.8952V33.8352H45.0359V39.8952H42.6759Z" fill="#1E1E1E"/>
<path d="M42.6759 153.52V147.46H45.0359V153.52H42.6759Z" fill="#A7A7A7"/>
<path d="M42.6759 115.645V109.585H45.0359V115.645H42.6759Z" fill="#1E1E1E"/>
<path d="M42.6759 229.27V223.21H45.0359V229.27H42.6759Z" fill="#A7A7A7"/>
<path d="M42.6759 267.145V261.085H45.0359V267.145H42.6759Z" fill="#1E1E1E"/>
<path d="M1.18 0V3.03H0V0H1.18Z" fill="#1E1E1E"/>
<path d="M0 39.8952V33.8352H1.18V39.8952H0Z" fill="#A7A7A7"/>
<path d="M0 77.7697V71.7097H1.18V77.7697H0Z" fill="#1E1E1E"/>
<path d="M0 115.645V109.585H1.18V115.645H0Z" fill="#A7A7A7"/>
<path d="M0 153.52V147.46H1.18V153.52H0Z" fill="#1E1E1E"/>
<path d="M0 191.395V185.335H1.18V191.395H0Z" fill="#A7A7A7"/>
<path d="M0 229.27V223.21H1.18V229.27H0Z" fill="#1E1E1E"/>
<path d="M0 267.145V261.085H1.18V267.145H0Z" fill="#A7A7A7"/>
<path d="M1.18 303H0V299.97H1.18V303Z" fill="#1E1E1E"/>
<path d="M15.5359 303H13.1759V299.97H15.5359V303Z" fill="#A7A7A7"/>
<path d="M30.2859 303H27.9259V299.97H30.2859V303Z" fill="#1E1E1E"/>
<path d="M45.0359 303H42.6759V299.97H45.0359V303Z" fill="#A7A7A7"/>
<path d="M59.7859 303H57.4259V299.97H59.7859V303Z" fill="#1E1E1E"/>
<path d="M74.5359 303H72.1759V299.97H74.5359V303Z" fill="#A7A7A7"/>
<path d="M89.2859 303H86.9259V299.97H89.2859V303Z" fill="#1E1E1E"/>
<path d="M104.036 303H101.676V299.97H104.036V303Z" fill="#A7A7A7"/>
<path d="M118 299.97V303H116.82V299.97H118Z" fill="#1E1E1E"/>
<path d="M118 261.085V267.145H116.82V261.085H118Z" fill="#A7A7A7"/>
<path d="M118 223.21V229.27H116.82V223.21H118Z" fill="#1E1E1E"/>
<path d="M118 185.335V191.395H116.82V185.335H118Z" fill="#A7A7A7"/>
<path d="M118 147.46V153.52H116.82V147.46H118Z" fill="#1E1E1E"/>
<path d="M118 109.585V115.645H116.82V109.585H118Z" fill="#A7A7A7"/>
<path d="M118 71.7097V77.7697H116.82V71.7097H118Z" fill="#1E1E1E"/>
<path d="M118 33.8352V39.8952H116.82V33.8352H118Z" fill="#A7A7A7"/>
<path d="M116.82 0V3.03H118V0H116.82Z" fill="#1E1E1E"/>
<path d="M101.676 0V3.03H104.036V0H101.676Z" fill="#A7A7A7"/>
<path d="M86.9259 0V3.03H89.2859V0H86.9259Z" fill="#1E1E1E"/>
<path d="M72.1759 0V3.03H74.5359V0H72.1759Z" fill="#A7A7A7"/>
<path d="M57.4259 0V3.03H59.7859V0H57.4259Z" fill="#1E1E1E"/>
<path d="M42.6759 0V3.03H45.0359V0H42.6759Z" fill="#A7A7A7"/>
<path d="M27.9259 0V3.03H30.2859V0H27.9259Z" fill="#1E1E1E"/>
<path d="M13.1759 0V3.03H15.5359V0H13.1759Z" fill="#A7A7A7"/>
</svg>
