<svg width="71" height="74" viewBox="0 0 71 74" fill="none" xmlns="http://www.w3.org/2000/svg">
<path d="M4.63018 71.2827C4.53649 70.1668 4.8834 69.0296 5.21398 67.9985C5.64004 66.6263 6.2033 65.2947 6.82926 64.0211C7.98693 61.6673 9.39333 59.4678 10.7916 57.2747C12.9238 53.8978 15.0619 50.5297 17.4126 47.3172C18.3118 46.0855 19.219 44.8474 20.1123 43.6069C20.5718 42.9032 21.0312 42.1995 21.4965 41.5047C21.8571 40.9311 22.1667 40.3171 22.5157 39.7258C22.8298 39.175 23.1067 38.5863 23.3895 38.0064C23.7304 37.2344 24.0713 36.4624 24.3646 35.6739C24.5206 35.2191 24.651 34.744 24.7593 34.2727C24.8141 33.9631 24.8664 33.6686 24.8991 33.3628C24.9062 33.2238 24.9075 33.0759 24.9145 32.9369C24.9076 32.7954 24.8983 32.669 24.8913 32.5274C24.874 32.4074 24.8427 32.2848 24.8171 32.1711C24.7893 32.0725 24.7556 31.965 24.7138 31.8639C24.6778 31.7716 24.6336 31.6856 24.5895 31.5997C24.5256 31.5023 24.4617 31.405 24.4037 31.3166C24.3258 31.2167 24.234 31.1143 24.1481 31.0207C23.8169 30.7033 23.4834 30.4011 23.1255 30.1178C22.4387 29.5955 21.7274 29.0922 21.0325 28.5763C20.3492 28.078 19.6868 27.5368 19.0302 27.0045C18.419 26.5037 17.8415 25.9233 17.2838 25.3544C16.6284 24.6741 15.9893 23.9812 15.3689 23.2606C13.1578 20.7155 11.3607 17.8092 9.38797 15.0659C8.49684 13.9142 7.58712 12.7902 6.69832 11.6233C5.83858 10.5006 5.02763 9.34011 4.18416 8.20483C3.91345 7.86727 3.6323 7.55121 3.33716 7.23259C2.6574 6.5713 1.96712 5.93148 1.31178 5.25125C1.04569 4.97688 0.786606 4.65703 0.618196 4.30688C0.443979 3.94789 0.340708 3.54719 0.35948 3.14533C0.371259 2.78895 0.47255 2.45666 0.621483 2.1408C0.914687 1.5394 1.34501 0.978527 1.9682 0.74884C2.41582 0.588571 2.84839 0.480159 3.31221 0.494296C3.54005 0.504522 3.77364 0.52358 3.99682 0.564133C4.40963 0.257251 4.9363 0.142565 5.49306 0.298291C6.21487 0.499594 6.87732 0.853738 7.54678 1.16243C8.14301 1.43444 8.7451 1.71531 9.34947 1.98101C10.1933 2.36815 11.0335 2.73123 11.8738 3.09435C13.7741 3.93066 15.6768 4.75184 17.5794 5.57298C19.3135 6.32453 21.0429 7.1064 22.7747 7.87311C24.5401 8.65374 26.3184 9.39776 28.0781 10.1695C31.623 11.7333 35.2191 13.1505 38.7872 14.6562C38.7198 14.6284 38.6442 14.6068 38.571 14.5701C42.0752 15.9784 45.5841 17.3565 49.0965 18.7585C51.0898 19.5494 53.089 20.3491 55.0881 21.1488C56.8431 21.8574 58.6191 22.5231 60.359 23.2835C62.4732 24.221 64.6141 25.1244 66.6374 26.2792C67.6253 26.8484 68.5795 27.4972 69.3544 28.3784C70.155 29.2799 70.5161 30.4288 70.519 31.6686C70.5176 32.1905 70.3651 32.7629 70.1766 33.243C69.9671 33.7661 69.7181 34.2663 69.3958 34.73C68.6258 35.8215 67.6838 36.7259 66.6733 37.5633C64.3324 39.4994 61.6256 40.8781 59.0384 42.3642C57.4582 43.2695 55.8652 44.1179 54.285 45.0232C50.5572 47.1672 46.8527 49.3465 43.1481 51.5259C39.9237 53.4262 36.7028 55.3505 33.5551 57.405C32.7655 57.924 31.9702 58.4342 31.1888 58.9469C31.1969 58.9406 31.2132 58.9279 31.2214 58.9216C30.8051 59.2045 30.383 59.4785 29.9748 59.7551L29.983 59.7488C29.9586 59.7677 29.9341 59.7867 29.9097 59.8056C29.8853 59.8245 29.8527 59.8498 29.8225 59.8599C29.7027 59.9394 29.5829 60.019 29.4713 60.0922C29.4876 60.0796 29.4876 60.0796 29.5039 60.0669C28.9597 60.4357 28.4178 60.7893 27.8736 61.158C27.8817 61.1517 27.8899 61.1454 27.8899 61.1454C24.7712 63.2441 21.6409 65.3252 18.4491 67.2938C16.7456 68.3482 15.0305 69.3848 13.3096 70.4126C11.6677 71.3925 9.9958 72.2889 8.27964 73.0994C7.60642 73.4213 6.91466 73.584 6.20099 73.3764C5.71978 73.2422 5.33624 72.9387 5.06905 72.5316C4.80881 72.1726 4.66601 71.749 4.63018 71.2827ZM13.1477 60.3214C11.9833 62.1596 10.8444 64.0181 9.86711 65.9916C9.46219 66.8533 9.09911 67.7225 8.76975 68.6057C11.5103 67.1474 14.1591 65.4933 16.8196 63.8568C19.9626 61.9261 23.0347 59.8501 26.1243 57.8006C26.0534 57.8422 25.9883 57.8927 25.9173 57.9344C26.429 57.5909 26.9488 57.2411 27.4604 56.8976C27.5639 56.8307 27.6674 56.7638 27.7651 56.688C27.7651 56.688 27.7569 56.6943 27.7488 56.7007C28.3314 56.3155 28.9 55.9279 29.4744 55.549C29.4093 55.5995 29.3383 55.6412 29.2674 55.6829C32.5931 53.4502 36.0058 51.3504 39.4314 49.3073C42.7395 47.3287 46.0395 45.3564 49.3801 43.446C51.5254 42.2226 53.6649 40.9902 55.8218 39.7844C58.1973 38.4625 60.5983 37.1608 62.8797 35.6581C63.6495 35.1277 64.4042 34.5556 65.1241 33.9305C65.4753 33.6046 65.7929 33.2648 66.1127 32.9099C66.279 32.7141 66.4336 32.5005 66.5883 32.287C66.6384 32.1948 66.6942 32.1114 66.7443 32.0192C66.7885 31.9181 66.8327 31.817 66.8769 31.7159C66.8944 31.649 66.9176 31.5909 66.9211 31.5214C66.9258 31.4911 66.9282 31.4759 66.9329 31.4456C66.9294 31.4216 66.9259 31.3975 66.9282 31.3824C66.9247 31.3584 66.9212 31.3343 66.9119 31.3014C66.9061 31.2926 66.9085 31.2775 66.9027 31.2687C66.8911 31.251 66.8875 31.2269 66.8701 31.2003C66.8411 31.1561 66.8063 31.1031 66.7854 31.0525C66.7308 30.988 66.6761 30.9234 66.6215 30.859C66.4588 30.7047 66.2938 30.5656 66.1288 30.4265C65.7743 30.1673 65.4095 29.9296 65.0422 29.707C61.9694 27.964 58.6719 26.7023 55.4443 25.3598C55.5175 25.3965 55.585 25.4244 55.6524 25.4522C48.1987 22.5001 40.7345 19.5694 33.3215 16.4922C26.1445 13.5124 19.042 10.3279 11.9034 7.23821C10.7539 6.74097 9.61262 6.23741 8.47128 5.73386C7.92618 5.50232 7.39738 5.25815 6.86275 5.00513C6.72903 5.08215 6.58369 5.14148 6.42674 5.18311C6.45811 5.21219 6.47555 5.23871 6.50692 5.2678C7.36438 6.31209 8.12178 7.44733 8.91412 8.54214C10.2816 10.326 11.6921 12.0631 13.0166 13.8937C13.6242 14.7445 14.205 15.6294 14.7882 16.4992C15.3447 17.3095 15.9256 18.1009 16.5205 18.8949C17.0735 19.5877 17.6323 20.2894 18.2261 20.9507C18.7919 21.6068 19.3868 22.2137 19.9852 22.8446C20.3931 23.2227 20.8033 23.5856 21.203 23.97C21.5795 24.319 21.9991 24.6213 22.3965 24.9273C23.9166 26.0452 25.5621 27.0924 26.8472 28.5261C29.1618 31.0977 28.5509 35.0707 27.2639 38.0323C26.6914 39.3311 26.1224 40.654 25.4116 41.8732C25.0289 42.544 24.6577 43.2325 24.2355 43.8806C23.7783 44.5691 23.327 45.2665 22.8756 45.9639C22.9152 45.8931 22.9687 45.8249 23.0083 45.7542C22.4453 46.6183 21.8114 47.4305 21.2112 48.2567C20.611 49.0829 19.9794 49.8801 19.4048 50.7265C18.2044 52.4724 17.026 54.2145 15.8709 55.9921C15.9163 55.9302 15.9558 55.8593 16.0093 55.7911C15.0636 57.3261 14.0969 58.8105 13.1477 60.3214Z" fill="black"/>
<path d="M27.6314 48.605C27.8025 48.0983 28.0863 47.6511 28.3341 47.2051C28.4004 47.0067 28.5005 46.8224 28.6087 46.6316C28.8356 46.1351 29.0648 45.6233 29.3254 45.1407C29.9176 44.0402 30.5725 42.9979 31.131 41.8836C31.4777 41.1205 31.8106 40.3548 32.1829 39.6119C32.5761 38.8261 32.9867 38.0667 33.38 37.2809C33.3463 37.3605 33.3149 37.425 33.2812 37.5046C33.65 36.7377 34.0223 35.9947 34.4655 35.3037C34.5702 34.9954 34.675 34.6871 34.7855 34.3876C34.8472 34.2196 34.895 34.0491 34.9509 33.8722C34.9196 33.7496 34.88 33.6332 34.8406 33.5169C34.8173 33.4815 34.7964 33.431 34.7813 33.3892C34.355 32.6649 33.902 31.9747 33.5082 31.2251C33.4815 31.1657 33.4548 31.1063 33.4142 31.0443C32.4407 29.449 31.3695 27.9294 30.2984 26.4098C30.0986 26.1241 29.9975 25.8018 29.9686 25.477C29.957 25.4593 29.9396 25.4328 29.9198 25.4214C29.7177 25.1509 29.5155 24.8803 29.3215 24.6034C29.2611 24.5301 29.2006 24.4567 29.146 24.3923C29.1146 24.3632 29.0891 24.3429 29.0577 24.3139C28.9299 24.2127 28.7858 24.1242 28.6417 24.0357C28.135 23.6942 27.8341 23.0862 27.8077 22.4657C27.4837 21.7287 27.6236 20.8189 28.1807 20.2265C28.875 19.4876 29.8316 19.6536 30.6743 19.908C30.8196 19.9422 30.9486 19.989 31.0834 20.0447C31.0974 20.0472 31.1032 20.0561 31.1113 20.0497C31.2322 20.1029 31.3473 20.1473 31.4658 20.2156C31.6065 20.2801 31.7447 20.3597 31.8854 20.4242C32.0039 20.4925 32.1085 20.5584 32.2189 20.633C32.3689 20.6368 32.5107 20.6469 32.6641 20.6748C32.9989 20.7356 33.3267 20.842 33.6486 20.9395C34.4553 21.1952 35.2363 21.5241 36.0022 21.9049C37.0808 22.4438 38.1198 23.0535 39.1564 23.6783C40.2129 24.3145 41.2158 25.0189 42.2618 25.6766C43.0881 26.1307 43.9319 26.5179 44.7652 26.9265C45.6659 27.363 46.548 27.8272 47.4382 28.2851C48.4017 28.7797 49.3617 29.2503 50.3276 29.7298C50.7924 29.9701 51.2573 30.2105 51.7141 30.4571C52.1964 30.724 52.7903 31.0112 53.1586 31.46C53.6535 32.0643 53.7648 32.9263 53.4576 33.6186C53.4203 33.8613 53.347 34.1051 53.2062 34.3212C53.055 34.5587 52.8991 34.8266 52.6677 34.9793C52.4747 35.1157 52.2758 35.2432 52.0828 35.3796L52.0909 35.3733C51.2665 35.9328 50.4537 36.5098 49.6931 37.1666C49.0826 37.7337 48.5069 38.3539 47.836 38.8477C47.108 39.3857 46.3882 39.9173 45.6544 40.4465C44.8776 41.0224 44.1067 41.6071 43.3241 42.1742C42.5741 42.7159 41.8066 43.2312 41.0601 43.797C40.281 44.388 39.5053 45.0031 38.7378 45.6118C37.9459 46.2395 37.1017 46.7875 36.2692 47.3533C34.5796 48.5037 32.8691 49.6971 31.0471 50.5896C30.0948 51.0479 28.8554 51.4617 28.049 50.4579C28.0142 50.4048 27.9655 50.3492 27.9248 50.2872C27.6007 49.8308 27.4347 49.1849 27.6314 48.605Z" fill="black"/>
</svg>
